<svg width="42" height="39" viewBox="0 0 42 39" fill="none" xmlns="http://www.w3.org/2000/svg"><path fill-rule="evenodd" clip-rule="evenodd" d="M30.7795 18.7915 30.8625 18.7938 30.8488 18.8262 31.7867 19.4193C31.672 19.616 31.3968 19.6395 31.0385 19.6702 30.425 19.7228 29.568 19.7961 28.8578 20.7961 28.0896 21.8775 28.1542 22.9349 28.5967 24.1316 28.3283 24.2694 28.0849 24.3995 27.8567 24.5214L27.8566 24.5215C26.7204 25.1287 25.963 25.5334 24.3818 25.6753 21.2798 25.9537 18.4685 24.4643 16.6784 21.9827 15.5946 20.4803 15.4176 19.5082 15.2954 17.6904 15.0886 14.6128 16.6969 11.8338 19.2401 10.1752 20.5772 9.3032 22.2029 8.93974 23.7779 8.99322 24.6294 9.0221 25.46 9.11792 26.2802 9.35806 26.4474 9.407 27.0929 9.71286 27.5981 9.95227V9.95229L27.5983 9.95236 27.5984 9.9524V9.95244C27.9442 10.1163 28.2242 10.249 28.2401 10.2468 28.333 9.98789 28.3689 9.76162 28.4058 9.52965 28.4619 9.17602 28.5201 8.80912 28.7857 8.29315 29.0078 7.86173 29.2364 7.62889 29.4621 7.39908 29.608 7.25051 29.7526 7.1032 29.8935 6.90432L29.967 6.69982 25.2883 5.01783 25.1663 5.1936 25.1683 3.59886C25.3795 3.58435 25.9183 3.58279 26.3337 3.58159H26.3338C26.4912 3.58114 26.6309 3.58074 26.7283 3.5797L26.7246.519059 20.6089.528196 20.5952 3.5448 20.554 3.54462C20.6248 3.62496 20.9443 3.59759 21.2694 3.56973 21.6141 3.54019 21.9651 3.51011 22.0328 3.6073 22.1149 3.7253 22.1863 4.95771 22.1535 5.10579 22.1424 5.12504 21.3895 5.35465 20.6265 5.58729L20.6264 5.58732C19.9313 5.79929 19.2279 6.01378 19.07 6.07394 18.184 6.41157 17.6627 6.73872 16.9962 7.15689V7.15691L16.9958 7.15717C16.8209 7.26692 16.636 7.38294 16.4318 7.50707 15.1647 8.27759 13.2654 10.477 12.7483 11.8749l-1.3216-.6936C12.4356 9.18693 13.24 8.37525 14.8266 6.85975 15.0667 6.63043 15.3682 6.43265 15.6687 6.23543 16.1866 5.89562 16.7019 5.5575 16.8963 5.06271 17.2527 4.15564 16.9821 2.62048 16.7317 1.69149 16.0293-.915593 14.6165.0276541 13.1811.986043 12.9152 1.16358 12.6486 1.34163 12.3855 1.49773L12.0229 1.71283v0L12.0228 1.71286V1.71289L12.0227 1.71293V1.71297C10.532 2.5972 9.04158 3.48125 7.57131 4.39738 7.23021 4.60992 6.88893 4.79835 6.55883 4.98061V4.98062H6.55882 6.55881C5.14983 5.75857 3.94444 6.4241 3.82541 8.37282 3.72317 10.0462 3.75421 11.9345 3.78411 13.7537v0 0 0 0 0C3.79712 14.5453 3.80991 15.3238 3.81142 16.0658 3.81169 16.2002 3.811 16.3357 3.81031 16.472 3.80503 17.5068 3.79955 18.5823 4.21354 19.5336L4.24529 19.6065C4.71775 20.6907 4.86615 21.0312 3.86148 21.9018 2.93644 22.7033 1.95671 23.7299 1.02837 24.7027H1.02834 1.02833 1.02831L1.02821 24.7028 1.02777 24.7033 1.02757 24.7035 1.02736 24.7037 1.02714 24.704C.675451 25.0725.33115 25.4332.0 25.7711L.054525 25.7177 12.204 38.1306 12.268 38.0679C13.7433 36.3922 15.5845 34.5214 17.2027 32.9759 17.328 32.8562 17.4456 32.7182 17.564 32.5794L17.5641 32.5793C17.8473 32.2471 18.1346 31.9101 18.54 31.8082 18.8907 31.7201 19.6201 31.7449 20.2425 31.7661 20.5245 31.7757 20.7846 31.7845 20.9775 31.7818 22.0238 31.7669 23.0801 31.7741 24.1347 31.7813H24.1348 24.135 24.1351 24.1352 24.1354C24.7483 31.7855 25.3605 31.7897 25.9699 31.7896 26.2578 31.7895 26.7077 31.7958 27.2601 31.8035 29.8862 31.8401 34.8284 31.9091 35.6943 31.4815 36.8708 30.9006 37.599 29.5239 37.3356 28.2255 37.2316 27.7128 36.8865 26.9207 36.5089 26.5526 36.4041 26.4505 35.6164 26.0712 35.1678 25.8552 34.9804 25.7649 34.8522 25.7032 34.8578 25.7021 35.0874 25.7044 35.3229 25.7115 35.5614 25.7188H35.5617C37.3591 25.7732 39.3237 25.8326 40.1476 23.8573 40.5309 22.9382 40.4975 21.7938 39.9404 20.9505 39.7088 20.6 39.3917 20.2677 39.0233 20.0615 38.9467 20.0187 38.4871 19.8506 38.1347 19.7217v0L38.1345 19.7216C37.8991 19.6355 37.7117 19.567 37.7186 19.5651 37.8602 19.5598 37.9942 19.5559 38.1223 19.5521 39.0286 19.5252 39.6451 19.5069 40.5861 19.1016 41.0205 18.9144 41.7908 17.5896 41.9183 17.1049 42.1522 16.2161 41.8705 15.2756 41.2412 14.6207 41.1852 14.5623 41.1272 14.4972 41.0673 14.43 40.8547 14.1913 40.618 13.9255 40.3583 13.839L39.0871 13.4394C40.1351 13.2788 40.9105 13.0345 41.4888 12.0947 41.9264 11.3837 42.075 9.73962 41.6589 9.00564 40.6263 7.1837 38.7392 7.27278 36.926 7.35837 36.5925 7.37411 36.2615 7.38974 35.9387 7.39333 35.637 7.39668 35.2311 7.38713 34.7925 7.37681 33.8635 7.35495 32.7873 7.32963 32.2412 7.41611 31.4004 7.54924 30.4856 8.27063 30.1122 9.02996 29.675 9.919 29.6999 11.2088 30.2252 12.0593 30.4645 12.4467 30.7887 12.7518 31.1798 12.983 31.2579 13.0292 31.8226 13.2058 32.212 13.3277 32.4253 13.3944 32.5859 13.4447 32.5853 13.4481 31.3551 13.6483 30.4467 14.2277 29.9966 15.4303 29.6051 16.4764 29.76 18.1451 30.7795 18.7916V18.7915zM24.674 18.8495 24.6611 18.8114 24.6888 18.827C24.9924 18.787 26.4143 16.2516 26.9742 15.2534V15.2533v0L26.9744 15.2529 26.9747 15.2524C27.0588 15.1025 27.1234 14.9873 27.1617 14.9206 27.3557 14.5834 27.558 14.2482 27.7661 13.9195 27.797 13.8707 27.8448 13.8076 27.8987 13.7364 28.0878 13.4864 28.3518 13.1373 28.2232 12.9634 27.9119 12.5426 27.1417 13.0487 26.5735 13.4221 26.3916 13.5417 26.2303 13.6476 26.1115 13.7052 25.728 13.8908 22.2673 16.054 22.187 16.2028 21.7659 16.9824 21.7009 17.9098 22.3579 18.5694 23.0638 19.2782 23.8368 19.2565 24.674 18.8495v0zM22.9381 23.1264C23.0574 24.191 24.7314 23.6692 24.4275 22.8508 24.1015 21.9729 22.8221 22.0914 22.9381 23.1264zM20.4324 21.2848C20.4487 21.0741 19.9746 20.5844 19.5887 20.6291 19.1054 20.6851 18.8489 20.9512 18.8823 21.4513 18.9435 22.3695 20.3565 22.2622 20.4324 21.2848zM23.6339 12.398C23.3313 12.3905 22.8464 11.7981 22.8452 11.5928v0C22.8445 11.4532 23.3178 10.7821 23.6387 10.8632 24.1648 10.9961 24.324 11.1111 24.4405 11.6645 24.4957 11.9265 23.9191 12.405 23.6339 12.398zM17.2139 17.4245C17.2742 18.268 18.7687 18.3626 18.6443 17.2428 18.5352 16.2608 17.1453 16.4662 17.2139 17.4245zM19.7436 12.6019C20.1732 12.6388 20.4027 13.0129 20.3308 13.4225v0C20.1811 14.2761 18.8011 14.2803 18.9221 13.1986 18.9765 12.7112 19.2093 12.556 19.7436 12.6019z" fill="#f2f2f2"/></svg>