<svg width="41" height="42" viewBox="0 0 41 42" fill="none" xmlns="http://www.w3.org/2000/svg"><g clip-path="url(#clip0)"><path fill-rule="evenodd" clip-rule="evenodd" d="M0 16.2753V37.4348C0 38.6025.356072 39.5603 1.02349 40.3968 1.12015 40.518 1.16766 40.6011 1.28328 40.7168 2.10286 41.5364 3.37087 42.0001 4.56519 42.0001H34.5653C35.1559 42.0001 36.0335 41.8101 36.4494 41.6378 36.8791 41.4598 37.537 41.04 37.8469 40.7164 39.4238 39.0698 39.1306 36.9056 39.1306 34.7537 37.5489 34.7537 31.1971 34.8999 30.0849 34.5964 29.448 34.4226 28.799 34.1184 28.2605 33.7398 26.983 32.8416 25.7972 31.0754 25.7972 29.4638 25.7972 28.1922 25.7584 27.5813 26.3519 26.3953 26.7889 25.5222 27.4129 24.7896 28.1879 24.2458 28.4834 24.0385 28.6284 23.9112 28.984 23.7375 29.4811 23.4947 30.3566 23.1594 31.0871 23.1594H39.1306C39.1306 21.7184 39.288 19.6441 38.6979 18.4471 38.4547 17.954 38.0915 17.3712 37.6512 17.03 36.3532 16.0243 35.5565 15.913 33.7683 15.913H6.3044C5.2943 15.913 4.34788 16.1177 4.34788 15.0434 4.34788 14.2349 6.51346 14.4636 7.24645 14.4636V11.5651C5.85755 11.5651 3.95509 11.44 2.73223 11.9059 2.45736 12.0106 2.22139 12.1648 1.97767 12.3108.648516 13.1069 605977e-10 14.6712 605977e-10 16.2753H0z" fill="#f2f2f2"/><path fill-rule="evenodd" clip-rule="evenodd" d="M15.5796 14.4637H18.8405C18.8605 14.2229 19.9459 11.6465 20.1452 11.2031 20.3678 10.7079 21.7346 7.27666 21.9565 7.1448 22.078 7.08753 21.9093 7.11068 22.0623 7.14025 22.2933 7.18491 22.0474 7.13037 22.2513 7.20158 24.2731 7.9076 26.5784 6.96458 27.535 5.25942 27.6583 5.03957 27.6823 4.89565 27.8261 4.68102 28.0002 4.77318 28.1511 4.81821 28.3321 4.89965 28.5177 4.98322 28.6109 5.04636 28.8313 5.12501L31.4387 6.21335C31.7507 6.33521 32.0037 6.37787 31.9611 6.59839 31.8955 6.93773 31.6666 7.20539 31.6666 8.15926 31.6666 8.70919 31.7518 9.25493 31.8907 9.67439 31.9636 9.89484 32.0469 10.0506 32.1522 10.2824 32.2604 10.5204 32.337 10.625 32.4834 10.8208 32.8581 11.3223 33.2906 11.7755 33.8392 12.0737L34.4203 12.3622 33.5507 14.4637H36.5943C36.6527 14.342 36.6833 14.2281 36.7403 14.1024L38.5983 9.94592C39.264 8.57145 39.3645 7.41149 38.2798 6.18396 37.7987 5.63967 37.0664 5.4234 36.3751 5.11768 36.0458 4.97207 35.6672 4.82136 35.3521 4.69132 34.9774 4.53667 34.6617 4.38518 34.2863 4.23538 34.124 4.17066 33.9556 4.09734 33.7809 4.01614L32.7629 3.5848C32.5329 3.50269 32.4334 3.4664 32.1982 3.35241 31.8453 3.18141 31.5397 3.08996 31.184 2.91732L25.9417.69581C24.5406.0658976 23.8649-.238484 22.5694.221331 21.2111.703506 20.9155 1.96812 20.4439 3.02337L15.5797 14.4636 15.5796 14.4637z" fill="#f2f2f2"/><path fill-rule="evenodd" clip-rule="evenodd" d="M31.5945 29.029C31.5819 28.9477 31.7167 28.3948 31.75 28.315 32.0111 27.6903 32.575 27.2783 33.2754 27.2373 34.8952 27.1424 35.8764 29.5505 34.0624 30.4824 33.1153 30.9689 31.9308 30.3951 31.6841 29.374 31.6614 29.2797 31.5952 29.0344 31.5944 29.029H31.5945zM27.7538 28.5942C27.7538 29.5796 27.7221 30.0464 28.2113 30.9629 28.4007 31.3176 28.8311 31.9271 29.1189 32.1567 30.037 32.889 30.9715 33.3044 32.2466 33.3044H38.9133C39.9108 33.3044 40.58 32.6145 40.58 31.7102V26.2753C40.58 25.2684 39.9203 24.6086 38.9133 24.6086H32.3191C30.9553 24.6086 30.1553 24.9551 29.1607 25.7257 28.4786 26.2542 27.7538 27.5617 27.7538 28.5942v0z" fill="#f2f2f2"/><path fill-rule="evenodd" clip-rule="evenodd" d="M21.3043 14.4636h10C31.3043 13.4828 30.1584 12.2432 29.5766 11.7709 28.8466 11.1783 27.3353 10.4781 26.3767 10.4781 25.3956 10.4781 24.6759 10.4323 23.7425 10.8874 23.2654 11.1199 22.8756 11.3456 22.5165 11.6903 21.8869 12.2947 21.3042 13.2638 21.3042 14.4637L21.3043 14.4636z" fill="#f2f2f2"/><path fill-rule="evenodd" clip-rule="evenodd" d="M12.2461 14.4637C13.8387 14.4637 13.6008 14.6097 13.9128 13.8116L14.5952 12.175C14.7121 11.8798 14.8234 11.6837 14.9479 11.3683L16.9767 6.5854C17.449 5.49173 18.1964 3.53564 18.6954 2.50706 18.8242 2.2417 18.9204 1.96961 19.0578 1.70995 17.7924 1.10276 15.8014 1.72662 15.1722 3.33173L12.479 13.4646C12.3921 13.8028 12.2544 14.0928 12.2462 14.4636L12.2461 14.4637z" fill="#f2f2f2"/><path fill-rule="evenodd" clip-rule="evenodd" d="M8.91315 14.4638H10.145L11.0862 10.9122C11.1573 10.6416 11.2399 10.4563 11.2993 10.1832L12.8193 4.3843C12.8822 4.08513 12.9519 3.90176 13.0339 3.65683 13.115 3.41456 13.2407 3.18586 13.261 2.94189 13.0669 3.02207 12.9417 2.96589 12.6116 3.01152 11.2944 3.19374 10.2162 4.24911 10.0768 5.55487L8.91309 14.4637 8.91315 14.4638z" fill="#f2f2f2"/></g><defs><clipPath id="clip0"><path d="M0 0h40.58v42H0z" fill="#fff"/></clipPath></defs></svg>