<svg width="42" height="43" viewBox="0 0 42 43" fill="none" xmlns="http://www.w3.org/2000/svg"><path fill-rule="evenodd" clip-rule="evenodd" d="M16.6641 26.1112C15.4601 26.1112 15.6853 25.0796 15.4389 24.3608 14.7304 22.2936 11.563 23.1249 11.563 25.1761 11.563 26.057 11.9023 26.7799 12.824 27.0607 13.3097 27.2086 14.033 27.1406 14.3381 27.5871 15.4047 29.1475 11.3951 30.6464 11.338 32.4976 11.2872 34.1438 14.5386 35.6063 14.5386 36.9088 14.5386 37.9096 13.0817 37.8815 12.7514 38.0122 10.5292 38.8916 11.5458 41.915 13.6982 41.9797 15.5196 42.0343 15.5602 39.8864 15.7235 39.539 16.1473 38.6385 17.0531 38.9584 17.7497 39.6489L19.4485 41.3511C21.0908 42.9961 21.8452 41.9726 23.1894 40.6283 23.6304 40.1874 24.6244 38.9491 25.3361 38.9491 26.2791 38.9491 26.3125 40.4118 26.4276 40.7484 27.1798 42.9498 30.3524 41.9178 30.3524 39.7994 30.3524 37.9486 28.315 37.9486 28.0008 37.8151 27.5296 37.615 27.3768 37.3045 27.3768 36.8238 27.3768 35.2761 32.4611 33.6688 29.6939 30.9357 29.4734 30.718 29.317 30.5602 29.0983 30.3409 28.8739 30.1158 28.7256 29.8548 28.3969 29.767 28.1365 30.8847 26.8162 32.1476 25.4211 32.1476H24.9109C22.0391 32.1476 19.8454 27.8216 22.8924 25.623 23.2363 25.3748 23.4463 25.3485 23.8058 25.1761 23.7215 24.8607 23.49 24.7313 23.2744 24.5172 23.0407 24.2848 22.8691 24.1138 22.6371 23.8793 20.3852 21.6007 19.4286 24.1122 17.867 25.359 17.5496 25.6123 17.131 26.1116 16.6641 26.1116V26.1112z" fill="#f2f2f2"/><path fill-rule="evenodd" clip-rule="evenodd" d="M5.27138 14.6336C4.08157 14.6336 4.39499 13.727 4.07347 12.8557 3.27459 10.6909.170057 11.761.170057 13.6983.170057 14.6085.523025 15.2796 1.43244 15.5816 2.06145 15.7904 3.14566 15.6498 3.14566 16.7589 3.14566 18.0998.0 19.3064.0 21.18.0 22.0752 1.0067 22.8244 1.50916 23.3267 2.30685 24.1244 3.14586 24.7044 3.14586 25.5159 3.14586 26.47 1.92442 26.3577 1.39111 26.5669-.890032 27.4617.382827 30.447 2.21055 30.447 4.48081 30.447 3.95185 28.4468 4.51996 27.8251 4.96765 27.3353 5.53279 27.4178 6.0137 27.834 8.02769 29.5765 8.99781 32.0417 11.2865 29.7456 11.6333 29.3975 12.1627 28.9503 12.413 28.5765 11.7628 28.2645 11.3474 28.1745 10.7364 27.4474 8.15721 24.3789 12.362 20.0019 15.5094 22.0792 16.11 22.4754 16.8531 23.1928 16.9189 23.9854 17.2452 23.8982 17.9391 23.0922 18.2155 22.8163 19.0098 22.0234 19.1295 21.9297 19.1295 20.8395 19.1295 19.5235 15.9838 18.1767 15.9838 16.5885 15.9838 15.6267 17.2792 15.7649 17.8218 15.5359 19.2412 14.9365 19.2333 13.1713 18.3027 12.3143 17.2497 11.3446 15.701 11.4391 15.1044 12.8185 14.7394 13.6623 15.0934 14.6332 13.8583 14.6332 12.713 14.6332 11.2877 11.4875 9.52222 11.4875 8.5875 11.4875 7.89382 12.4784 7.37554 12.9967 6.95613 13.4161 5.93895 14.6334 5.27138 14.6334V14.6336z" fill="#adff00"/><path fill-rule="evenodd" clip-rule="evenodd" d="M16.6639 3.24072C15.4004 3.24072 16.0244 1.56922 14.9027.58091 13.8521-.344518 11.6476.450401 11.6476 2.5605 11.6476 4.2674 13.773 4.26107 14.0585 4.40067 14.3421 4.53929 14.6232 4.93022 14.6232 5.28121 14.6232 6.17599 12.264 7.92185 11.7157 8.66516 10.8343 9.86011 11.9719 10.9194 12.7315 11.6789 12.995 11.9425 13.2224 12.3212 13.6029 12.4228 13.6858 11.4266 15.1437 10.0422 16.4937 10.0422 17.6973 10.0422 18.3602 10.1971 19.3206 11.0412 19.827 11.4865 20.3516 12.356 20.4687 13.1262 20.7538 15.0032 19.6126 16.6636 18.1092 17.0138 18.3619 17.3913 19.0022 17.9487 19.3633 18.3104 21.3203 20.2706 22.1597 18.7907 24.2095 16.7375 24.6214 16.3249 25.5037 15.4081 26.2014 16.4886 26.4185 16.8249 26.3143 18.4788 27.6168 18.8996 30.0124 19.6738 31.6446 16.1415 29.2484 15.1422 28.7588 14.9379 27.4616 15.0789 27.4616 14.0382 27.4616 13.4335 27.7993 13.143 28.1201 12.8262 28.4546 12.4958 28.7234 12.2237 29.0558 11.8913 29.7779 11.1692 30.6074 10.6946 30.6074 9.53205 30.6074 8.58764 29.0631 7.3486 28.2057 6.49258 27.7416 6.02927 27.4618 5.88373 27.4618 5.19599 27.4618 3.98423 28.9531 4.64034 29.9515 3.60477 30.7864 2.73886 30.4447 1.44603 29.7813.835996 28.845-.0249687 27.6221-.0301099 26.8041.967296 26.2803 1.606 26.5314 2.10273 26.2212 2.67993 25.938 3.20691 25.3673 3.33544 24.7931 3.01886 24.5097 2.86264 22.8712 1.16148 22.5096.795854 20.8021-.930029 19.8347.537604 18.811 1.56131 18.4019 1.97024 17.2995 3.24053 16.6643 3.24053L16.6639 3.24072z" fill="#f2f2f2"/><path fill-rule="evenodd" clip-rule="evenodd" d="M29.5871 13.6131C31.9266 14.158 32.9847 17.3349 30.9719 19.4187 29.7395 20.6946 27.5157 21.0519 26.165 19.8409 25.7736 19.4899 25.1336 18.8336 25.0812 18.204 24.847 18.2665 22.8706 20.0545 22.8706 20.7547 22.8706 22.1128 23.3628 22.3097 24.3798 23.3265 24.6981 23.6449 24.9538 23.9011 25.2726 24.2191 25.7367 24.6824 26.0165 24.8279 26.0165 25.5157 26.0165 26.4977 24.6582 26.4113 24.2611 26.5661 22.2236 27.3602 22.8548 30.447 25.3362 30.447 26.1359 30.447 26.7408 29.8381 26.9445 29.2494 27.073 28.8781 27.0623 28.4082 27.2023 28.062 27.4788 27.3782 28.2954 27.3076 28.93 27.8736L30.8839 29.8306C32.7598 31.7133 33.6916 30.129 35.5175 28.3003 37.7301 26.0842 37.752 28.9433 37.9998 29.4314 38.1815 29.7893 38.2667 29.8767 38.575 30.1314 39.4146 30.8248 40.5109 30.4742 41.1278 29.9146 42.0157 29.1094 42.2913 27.2315 40.6094 26.5665 40.5542 26.5447 37.4718 26.3316 39.5133 24.3041 40.382 23.4414 42.0003 22.1248 42.0003 21.1798 42.0003 19.2609 38.8546 18.1918 38.8546 16.6737 38.8546 15.6595 40.1196 15.756 40.5805 15.5938 42.7899 14.8171 41.7907 11.6574 39.6199 11.6574 38.8586 11.6574 38.1918 12.2194 37.9509 12.7942 37.591 13.6532 37.9579 14.6332 36.7291 14.6332 35.3736 14.6332 34.1784 11.4875 32.308 11.4875 31.5431 11.4875 31.1993 11.9584 30.7988 12.359 30.4475 12.7106 29.8339 13.2449 29.5873 13.6131H29.5871z" fill="#f2f2f2"/></svg>