<svg width="71" height="71" viewBox="0 0 71 71" fill="none" xmlns="http://www.w3.org/2000/svg"><g filter="url(#filter0_dii)"><rect width="68" height="68" rx="5" fill="#80bd00"/></g><g clip-path="url(#clip0)"><path fill-rule="evenodd" clip-rule="evenodd" d="M29.7822 49.5594C32.3767 49.5569 34.9817 49.5384 37.5752 49.5601 38.6702 49.5692 38.3038 49.5603 38.8694 48.8935 39.1962 48.5082 39.4282 48.3193 39.8638 47.9936 42.5373 45.9941 45.7982 46.3133 48.3829 48.4022 49.8049 49.5515 51.0043 51.954 48.5372 53.1783L49.5109 53.8886C50.8006 53.4723 52.9504 52.116 53.6686 51.3853 55.397 49.6267 55.1507 49.4513 54.553 46.7241 54.1954 45.0928 53.5668 43.1466 52.8266 41.83 51.8065 40.0155 51.2881 39.6787 49.4601 38.6154 48.529 38.0738 41.3115 34.0506 40.797 34.0034 40.3354 33.9611 39.9952 34.3224 39.6928 34.5291 39.3824 34.7411 39.0446 34.9456 38.6641 35.1523 36.576 36.2864 35.8753 35.7158 35.4153 36.8528 35.2225 37.3294 34.2342 40.081 34.0098 40.3791 33.7734 40.0652 32.7941 37.2969 32.5806 36.7946 32.1343 35.7445 31.3882 36.2658 29.3026 35.1235 28.3595 34.6069 27.7123 33.9194 27.1502 34.0134 26.7284 34.084 23.3691 35.9907 22.7641 36.3031 21.5408 36.9348 17.3632 39.1225 16.5085 40.0202 14.9407 41.6671 14.039 44.4965 13.4666 46.8213 13.3427 47.3247 12.9153 49.1062 13.0149 49.5303 13.3979 51.1609 16.7724 53.2922 18.5086 53.8987 18.8186 53.7274 19.029 53.476 19.4787 53.2291 19.1968 52.9818 18.8864 52.9259 18.6285 52.6414 17.6367 51.547 18.0882 50.4488 18.6496 49.5507 19.2405 48.6056 20.4092 47.605 21.7949 47.0947 23.3358 46.5271 25.0725 46.5238 26.6229 47.1363 28.8865 48.0308 29.3438 49.4071 29.7821 49.5594H29.7822z" fill="#fff"/><path fill-rule="evenodd" clip-rule="evenodd" d="M24.3544 20.6524C24.5085 20.7515 24.5858 20.9588 24.7064 21.1307 24.8694 21.3631 24.9619 21.429 25.1421 21.599 26.2619 22.6551 26.6554 21.4069 28.4141 20.2548 31.8934 17.9756 36.1276 17.976 39.6063 20.2548 40.3607 20.749 41.1729 21.5546 41.6339 21.8549 42.6365 22.5082 43.4539 20.7871 43.6658 20.6524 43.7233 24.812 43.4183 27.2539 41.3807 30.0785 40.4827 31.3234 39.6753 32.0581 38.3569 32.9815 37.4377 33.6254 35.4153 34.6063 34.0102 34.6064 32.6057 34.6064 30.5819 33.6248 29.6634 32.9815 25.1925 29.8499 24.2774 26.2307 24.3544 20.6524v0zM30.334 13.9913C30.8845 13.909 31.4754 13.7059 32.1042 13.596 34.7945 13.1255 35.5678 13.6708 37.7091 14L36.8975 16.0366C36.0125 16.0109 35.1815 15.6323 34.0102 15.6323 32.8388 15.6323 32.0077 16.0109 31.12 16.0376L30.3339 13.9913H30.334zM32.3053 9.11243C30.1607 9.38293 29.1538 9.49955 27.3479 10.3952 26.0517 11.0381 24.9083 12.2064 24.1906 13.4867 22.316 16.8312 21.9426 24.899 24.1338 29.1164 24.9909 30.766 25.751 31.6672 26.7639 32.7319 27.0553 33.0381 27.2537 33.1625 27.5947 33.4656 29.6039 35.2512 32.8417 36.7158 35.6226 35.9998 40.2796 34.8006 43.6239 30.9349 44.8175 26.6083 45.3277 24.7591 45.3642 22.9143 45.3095 20.8671 45.1923 16.4742 44.4749 12.8417 41.3935 10.8235 38.9471 9.22117 35.1187 8.75742 32.3052 9.11233L32.3053 9.11243z" fill="#fff"/><path fill-rule="evenodd" clip-rule="evenodd" d="M28.5388 52.4819C28.3436 52.2595 28.2295 51.9607 28.0917 51.7407 26.6486 49.4371 23.2286 48.7622 20.947 50.8454 18.362 53.2056 21.8264 52.2049 24.4412 52.4067 24.7464 53.0577 24.7672 55.3002 24.4353 55.9832 23.7301 56.0231 22.9522 55.995 22.2389 55.9955 21.8025 55.9958 20.3621 55.8746 20.1147 56.1545 19.5482 56.7957 23.4235 60.5524 26.9786 57.8442 28.078 57.0067 28.1832 56.3348 28.5388 55.9003L39.4808 55.9053C39.8439 56.3276 40.007 57.1018 41.0373 57.8477 44.531 60.3772 48.0304 57.2475 47.993 56.1339 47.5241 55.8233 44.5828 55.9924 43.7084 55.9932 43.4659 55.8643 43.5723 56.069 43.4522 55.627 43.2805 54.9954 43.3051 53.0535 43.5743 52.4048 44.3901 52.3507 47.4893 52.5823 47.936 52.2785 48.1824 51.7022 46.8264 50.598 46.4299 50.3392 44.3776 49.0003 41.608 49.5029 40.1345 51.4558 39.9181 51.7426 39.6868 52.2361 39.4808 52.4877L28.5388 52.4819z" fill="#fff"/></g><defs><filter id="filter0_dii" x="-2" y="-2" width="74" height="74" filterUnits="userSpaceOnUse" color-interpolation-filters="sRGB"><feFlood flood-opacity="0" result="BackgroundImageFix"/><feColorMatrix in="SourceAlpha" type="matrix" values="0 0 0 0 0 0 0 0 0 0 0 0 0 0 0 0 0 0 127 0"/><feOffset dx="2" dy="2"/><feGaussianBlur stdDeviation=".5"/><feColorMatrix type="matrix" values="0 0 0 0 0 0 0 0 0 0 0 0 0 0 0 0 0 0 0.08 0"/><feBlend mode="normal" in2="BackgroundImageFix" result="effect1_dropShadow"/><feBlend mode="normal" in="SourceGraphic" in2="effect1_dropShadow" result="shape"/><feColorMatrix in="SourceAlpha" type="matrix" values="0 0 0 0 0 0 0 0 0 0 0 0 0 0 0 0 0 0 127 0" result="hardAlpha"/><feOffset dx="4" dy="4"/><feGaussianBlur stdDeviation="4.5"/><feComposite in2="hardAlpha" operator="arithmetic" k2="-1" k3="1"/><feColorMatrix type="matrix" values="0 0 0 0 0.677249 0 0 0 0 1 0 0 0 0 0 0 0 0 1 0"/><feBlend mode="normal" in2="shape" result="effect2_innerShadow"/><feColorMatrix in="SourceAlpha" type="matrix" values="0 0 0 0 0 0 0 0 0 0 0 0 0 0 0 0 0 0 127 0" result="hardAlpha"/><feOffset dx="-2" dy="-2"/><feGaussianBlur stdDeviation="2"/><feComposite in2="hardAlpha" operator="arithmetic" k2="-1" k3="1"/><feColorMatrix type="matrix" values="0 0 0 0 0.411684 0 0 0 0 0.607878 0 0 0 0 0 0 0 0 1 0"/><feBlend mode="normal" in2="effect2_innerShadow" result="effect3_innerShadow"/></filter><clipPath id="clip0"><path d="M0 0h42v49.814H0z" fill="#fff" transform="translate(13 9)"/></clipPath></defs></svg>