<svg width="68" height="68" viewBox="0 0 68 68" fill="none" xmlns="http://www.w3.org/2000/svg"><path fill-rule="evenodd" clip-rule="evenodd" d="M52.7159 12.3133 67.9319 27.947V61.1456C67.9319 64.8928 64.8928 67.932 61.1454 67.932H27.2035L15.3072 55.7092C15.1227 55.5196 15 55.2553 15 54.9832V13.0483C15 12.4718 15.4443 12.0094 15.8816 12.0094H52.0237C52.2873 12.0094 52.5355 12.1284 52.7157 12.3133H52.7159z" fill="#e1dbdb"/><path fill-rule="evenodd" clip-rule="evenodd" d="M17.0151 14.0243H50.9848V53.9758H17.0151V14.0243zM15.0002 13.0484V54.9833C15.0002 55.5011 15.4449 55.9907 15.9131 55.9907h36.142C52.5588 55.9907 52.9995 55.5245 52.9995 55.0148V12.9854C52.9995 12.4678 52.5411 12.0095 52.0237 12.0095H15.8816C15.4443 12.0095 15 12.472 15 13.0484H15.0002zM20.0059 51.0164H33.0082V30.9935H20.0059V51.0164zM34.9917 50.922C34.9917 50.9945 35.0136 51.0164 35.0861 51.0164H47.994V30.9935H34.9917V50.922zM20.0059 29.01H33.0082V17.0151H20.0059V29.01zM34.9917 29.01H47.994V17.0151H34.9917V29.01z" fill="#80bd00"/><rect x=".5" y=".5" width="67" height="67" rx="4.5" stroke="#80bd00"/></svg>