<svg width="68" height="68" viewBox="0 0 68 68" fill="none" xmlns="http://www.w3.org/2000/svg"><path fill-rule="evenodd" clip-rule="evenodd" d="M51.365 34.4254C51.371 34.1388 51.3697 33.8524 51.3609 33.5669 51.3591 33.5086 51.356 33.4506 51.3535 33.3923L33.9891 16.7278 34.0201 12.7296 34.0248 11.7153C38.7324 11.8935 43.0367 13.276 46.5811 15.6088 46.5847 15.6109 46.5882 15.6135 46.5916 15.6156 46.8794 15.8053 47.1624 16.0012 47.4401 16.2033 47.4521 16.212 47.4638 16.2206 47.4758 16.2293 47.7444 16.4256 48.0082 16.6275 48.2668 16.8354 48.2861 16.851 48.3053 16.8667 48.3246 16.8823 48.5745 17.0844 48.8196 17.2917 49.0597 17.5041 49.0856 17.5271 49.1113 17.5502 49.1372 17.5732 49.3268 17.7427 49.5146 17.9144 49.6978 18.0905L67.932 35.5898V61.1453C67.932 64.8926 64.8929 67.9317 61.1455 67.9317H37.1459L18.5786 50.1127C18.1558 49.7069 17.748 49.2832 17.3572 48.8423 12.6688 43.5556 11.6961 38.4451 11.688 31.5681L16.0216 31.5227C17.774 31.5252 19.5507 31.4731 21.2627 31.4901L23.3766 31.5324C24.2273 31.1378 24.8633 23.2089 34.8834 23.2415L36.4859 23.2366 40.5933 27.1787 43.6422 27.1983 51.3592 34.6043C51.3611 34.5446 51.3634 34.4847 51.3645 34.425L51.365 34.4254z" fill="#e1dbdb"/><path fill-rule="evenodd" clip-rule="evenodd" d="M33.9894 16.728C49.1599 17.3681 56.859 34.2535 46.898 45.5023 42.3164 50.6763 34.9243 52.576 28.3979 50.3235 25.5431 49.3382 22.8199 47.5026 20.8762 45.1859 19.7051 43.7901 16.3905 38.1055 16.9909 36.5042L18.9532 36.4586C20.4525 36.4397 21.9902 36.4958 23.5157 36.4758 25.7892 43.4374 29.7172 44.6711 36.5059 44.7783L36.4664 42.9021C36.4373 42.2291 36.493 41.5515 36.5189 40.8781 36.5942 40.82 38.4958 40.8014 38.7462 40.798 40.334 40.7761 42.0727 40.8058 43.6568 40.8079L43.6414 35.851 36.5334 35.8262 36.497 32.2442 36.5716 32.1271C36.7306 32.1284 43.3901 32.2442 43.6396 32.1211 43.6821 30.6161 43.647 28.7419 43.6429 27.1988L36.5377 27.1532C36.4225 26.9571 36.4856 23.3211 36.4863 23.2372L34.8839 23.242C24.8637 23.2095 24.2278 31.1384 23.3771 31.533L21.2632 31.4906C19.5512 31.4736 17.7745 31.5256 16.0221 31.5232L11.6885 31.5686C11.6966 38.4456 12.6693 43.5561 17.3577 48.8428 21.3052 53.2941 26.9498 55.9959 32.8943 56.2614 45.7115 56.8338 56.3 46.8719 56.3125 34.0199 56.2671 21.2219 46.5774 12.1908 34.0254 11.7157L34.0207 12.7299 33.9898 16.7281 33.9894 16.728z" fill="#80bd00"/><rect x=".5" y=".5" width="67" height="67" rx="4.5" stroke="#80bd00"/></svg>