<svg width="68" height="68" viewBox="0 0 68 68" fill="none" xmlns="http://www.w3.org/2000/svg"><g clip-path="url(#clip0)"><path fill-rule="evenodd" clip-rule="evenodd" d="M12.1761 23.9839C12.181 23.9929 12.1878 24.0039 12.1906 24.011L12.239 24.2266C12.3481 24.5631 12.5258 24.81 12.7549 24.9903L30.1178 38.6508C29.7531 38.7666 29.0714 38.993 28.8061 39.7043 28.621 40.2005 28.7008 41.639 28.7008 42.2758V53.0689C28.7 53.9837 28.9038 54.5033 29.2777 54.7975L45.9722 67.932H61.1457C64.8782 67.932 67.9321 64.8781 67.9321 61.1456V26.9388L49.6041 12.519C49.3222 12.2973 48.919 12.1698 48.3451 12.1717L27.7586 12.1721C23.196 12.1721 18.6311 12.1862 14.0688 12.1717 13.0268 12.1685 12.2356 12.6928 12.1756 13.6909 12.1111 14.7631 12.1721 16.0428 12.1721 17.1379 12.1721 19.4197 12.1734 21.7031 12.1761 23.9839h0z" fill="#e1dbdb"/><path fill-rule="evenodd" clip-rule="evenodd" d="M12.1761 23.9839C12.1811 23.9929 12.1878 24.004 12.1907 24.011L12.239 24.2267C12.7536 25.8134 14.7929 25.4086 16.5517 25.4086H44.1379C45.2871 25.4086 48.6556 25.6185 49.4092 25.1678 50.5966 24.4579 50.2072 22.0515 50.2107 20.451L51.8502 20.4465 51.8503 27.4011C51.0198 27.7006 49.4602 27.9603 48.5498 28.171 47.4501 28.4255 46.3434 28.681 45.2408 28.9329 43.0182 29.4407 40.8194 29.9499 38.6008 30.4626 36.3785 30.9761 34.1846 31.4702 31.955 31.9911 30.5445 32.3207 30.3541 32.8824 30.3541 34.4483 30.3541 35.8162 30.3541 37.184 30.3541 38.5518 30.2955 38.6665 29.1664 38.7385 28.8061 39.7045 28.621 40.2006 28.7008 41.6391 28.7008 42.2759V53.069C28.6989 55.3586 29.9781 55.1726 31.9999 55.1726 33.9541 55.1726 35.3355 55.3448 35.331 53.1383L35.3309 42.3104C35.3309 41.7044 35.4037 40.1956 35.234 39.734 34.8572 38.7092 33.7496 38.6903 33.6766 38.5518V34.9589C35.0038 34.7662 36.8133 34.251 38.1749 33.9304L51.6814 30.822C53.1693 30.4833 55.0667 30.416 55.1687 28.7888 55.2759 27.076 55.1731 24.9949 55.1731 23.2415 55.1731 22.1449 55.3517 18.6457 54.9448 17.9517 54.2033 16.6869 51.9216 17.1941 50.221 17.1233 49.9548 15.064 51.0662 12.163 48.3451 12.1718L27.7586 12.1722C23.196 12.1722 18.6311 12.1863 14.0688 12.1718 13.0268 12.1686 12.2356 12.6929 12.1756 13.691 12.1111 14.7632 12.1721 16.0429 12.1721 17.138 12.1721 19.4198 12.1734 21.7033 12.1761 23.984V23.9839z" fill="#80bd00"/><g filter="url(#filter0_dii)"><rect x=".5" y=".5" width="67" height="67" rx="4.5" stroke="#80bd00"/></g></g><defs><filter id="filter0_dii" x="-2" y="-2" width="74" height="74" filterUnits="userSpaceOnUse" color-interpolation-filters="sRGB"><feFlood flood-opacity="0" result="BackgroundImageFix"/><feColorMatrix in="SourceAlpha" type="matrix" values="0 0 0 0 0 0 0 0 0 0 0 0 0 0 0 0 0 0 127 0"/><feOffset dx="2" dy="2"/><feGaussianBlur stdDeviation=".5"/><feColorMatrix type="matrix" values="0 0 0 0 0 0 0 0 0 0 0 0 0 0 0 0 0 0 0.08 0"/><feBlend mode="normal" in2="BackgroundImageFix" result="effect1_dropShadow"/><feBlend mode="normal" in="SourceGraphic" in2="effect1_dropShadow" result="shape"/><feColorMatrix in="SourceAlpha" type="matrix" values="0 0 0 0 0 0 0 0 0 0 0 0 0 0 0 0 0 0 127 0" result="hardAlpha"/><feOffset dx="4" dy="4"/><feGaussianBlur stdDeviation="4.5"/><feComposite in2="hardAlpha" operator="arithmetic" k2="-1" k3="1"/><feColorMatrix type="matrix" values="0 0 0 0 0.677249 0 0 0 0 1 0 0 0 0 0 0 0 0 1 0"/><feBlend mode="normal" in2="shape" result="effect2_innerShadow"/><feColorMatrix in="SourceAlpha" type="matrix" values="0 0 0 0 0 0 0 0 0 0 0 0 0 0 0 0 0 0 127 0" result="hardAlpha"/><feOffset dx="-2" dy="-2"/><feGaussianBlur stdDeviation="2"/><feComposite in2="hardAlpha" operator="arithmetic" k2="-1" k3="1"/><feColorMatrix type="matrix" values="0 0 0 0 0.411684 0 0 0 0 0.607878 0 0 0 0 0 0 0 0 1 0"/><feBlend mode="normal" in2="effect2_innerShadow" result="effect3_innerShadow"/></filter><clipPath id="clip0"><path d="M0 0h68v68H0z" fill="#fff"/></clipPath></defs></svg>