<svg width="68" height="68" viewBox="0 0 68 68" fill="none" xmlns="http://www.w3.org/2000/svg"><path fill-rule="evenodd" clip-rule="evenodd" d="M28.0482 15.0541C28.008 15.0824 28.083 15.0637 27.9475 15.1065 27.9007 15.1213 27.8696 15.1205 27.8198 15.1275L27.6739 15.1643 27.4883 15.2609C27.2793 15.2269 26.5358 15.7244 26.4059 15.8289 25.8326 16.2898 25.2761 17.1721 25.1942 17.8774 25.1205 18.5111 25.23 18.9412 25.2335 19.3791 25.2403 19.3864 25.2454 19.3912 25.2492 19.3941L25.2692 19.4097C25.2745 19.4214 25.2829 19.4397 25.2962 19.4676 25.3128 19.5028 25.3178 19.5384 25.3277 19.5726L25.4021 19.7928C25.4469 19.8353 25.4268 19.809 25.4626 19.8671 25.4666 19.8736 25.4695 19.8971 25.4723 19.8992L25.4763 19.9024C25.478 19.9098 25.4795 19.9249 25.4814 19.9323 25.5403 20.0046 25.6208 20.1602 25.677 20.2466 25.7532 20.3639 25.7991 20.4255 25.8846 20.5365 26.0606 20.7649 26.2687 20.9767 26.5064 21.162L33.9427 26.9567C33.8031 27.1225 33.6782 27.3112 33.5561 27.5218 33.2375 28.0715 33.2296 28.2831 33.2233 29.0159L33.2198 30.3783C33.2207 30.7151 33.2601 30.7153 33.115 30.7312 32.8868 30.7562 32.4034 30.7282 32.1467 30.7282 30.0115 30.7282 27.5064 30.6855 25.4213 30.7433L23.6165 30.8042 23.1125 30.8848 22.7173 30.9628 22.5359 31.02 22.2247 31.1162C22.2072 31.1292 22.2056 31.1332 22.2072 31.1345L22.2099 31.1366C22.2057 31.1389 22.1916 31.1452 22.1528 31.1629 22.121 31.1774 22.1142 31.1811 22.1124 31.1813L22.1108 31.1801C22.1089 31.1786 22.1012 31.1771 22.0611 31.1855 21.226 31.431 20.2341 32.1717 19.665 32.6833 18.7456 33.5098 18.5694 33.9087 17.9969 34.823 17.9654 34.9558 18.0072 34.8809 17.9164 34.9568L17.6959 35.4908 17.5992 35.7178 17.5559 35.8437C17.5485 35.8769 17.5404 35.9273 17.526 35.9576 17.4941 36.0248 17.5144 35.9807 17.4715 36.0212 17.4541 36.2949 17.1898 36.7449 17.1575 37.5164 17.1094 38.6632 17.0627 39.91 17.0678 41.0513 17.0695 41.4376 16.9999 42.5196 17.0589 42.7995 17.1165 43.0695 17.0458 43.517 17.0399 43.8118L19.2261 45.5154C19.0058 45.7564 18.3657 46.6197 18.2478 46.7919L17.374 48.1884 17.3188 48.3022C17.0272 48.8926 16.6919 49.4954 16.4531 50.182 16.436 50.2706 16.4616 50.1943 16.4314 50.2738 16.3932 50.3745 16.4112 50.3097 16.3865 50.3432 16.3178 50.6091 16.2273 50.8237 16.1548 51.0854 15.9833 51.7044 15.9122 53.1337 16.1652 53.6846 16.4108 54.2195 16.7818 54.7082 17.2494 55.0726L33.347 67.6167H61.0998C64.8323 67.6167 67.8862 64.7437 67.8862 61.2322V29.2481L50.611 15.7863C50.3401 15.5752 50.0247 15.4018 49.6431 15.2612 49.5743 15.2424 49.613 15.2618 49.5741 15.2422L49.4954 15.1808C49.2076 15.1181 49.0684 15.0443 48.6998 15.0394 48.4062 15.0356 48.0707 15.0293 47.7799 15.049 47.064 15.0973 46.8545 15.2367 46.3547 15.4764 46.3196 15.5163 46.3555 15.4848 46.2961 15.5345 46.2924 15.5377 46.2892 15.5404 46.2866 15.5427 46.2771 15.5473 46.2638 15.5541 46.2455 15.5639 45.675 15.9142 45.2073 16.3779 44.9179 16.9575L41.6794 16.9523C41.185 16.567 40.6905 16.1817 40.196 15.7964 39.9797 15.6278 39.746 15.4939 39.5048 15.4209 39.4713 15.4141 39.4457 15.4113 39.4248 15.4081L39.3233 15.329C39.2217 15.3351 38.905 15.2663 38.7338 15.2588 37.6864 15.2128 36.9692 15.5099 36.2813 16.1992 36.0637 16.4172 35.9122 16.7393 35.8013 16.8828 35.755 16.9428 35.7781 16.927 35.6986 16.9566L32.6655 16.9516 31.0276 15.6754C30.713 15.4301 30.3848 15.2305 30.1881 15.2571 30.1507 15.2426 30.099 15.2253 30.063 15.2079 30.0503 15.2016 30.0412 15.1965 30.0342 15.1919L30.0053 15.1694C30.0037 15.1681 30.0019 15.1668 30 15.1654 29.6887 15.1138 29.4436 15.0295 29.0757 15.0067 28.6802 14.9821 28.3949 15.0348 28.0483 15.0543L28.0482 15.0541z" fill="#e1dbdb"/><path fill-rule="evenodd" clip-rule="evenodd" d="M28.0484 15.0541C28.0082 15.0824 28.0832 15.0637 27.9477 15.1065 27.9008 15.1214 27.8698 15.1205 27.8199 15.1275L27.674 15.1644 27.4884 15.2609C27.2794 15.2269 26.5359 15.7244 26.406 15.8289 25.8328 16.2898 25.2762 17.1721 25.1943 17.8774 25.1207 18.5111 25.2301 18.9412 25.2337 19.3791 25.2912 19.4409 25.2269 19.3211 25.2962 19.4676 25.3129 19.5028 25.3179 19.5384 25.3277 19.5726L25.4022 19.7928C25.4469 19.8353 25.4269 19.809 25.4627 19.8671 25.4672 19.8745 25.4704 19.9041 25.4736 19.8988 25.4768 19.8934 25.4787 19.9212 25.4815 19.9323 25.5403 20.0046 25.6209 20.1602 25.6771 20.2466 25.7532 20.3639 25.7991 20.4255 25.8847 20.5365 26.3057 21.0831 26.9103 21.5334 27.6661 21.7567 27.7676 21.7622 27.7081 21.7567 27.7767 21.7769 27.784 21.779 27.7964 21.7987 27.8016 21.7914 27.8067 21.7843 27.8156 21.8029 27.8229 21.8083 28.4972 21.8601 28.8326 22.0365 29.77 21.819 29.9525 21.7767 30.1709 21.687 30.3131 21.6613 30.3525 21.6276 30.2954 21.6576 30.3868 21.6139 30.3943 21.6103 30.4146 21.6184 30.4207 21.6049 30.427 21.5905 30.445 21.6003 30.4571 21.598 30.6445 21.4878 30.8221 21.4126 30.973 21.2955 31.3943 20.9684 31.9564 20.497 32.1571 19.9691L35.5864 19.9744 35.5241 26.0115C35.4752 26.0595 35.5525 26.0222 35.4335 26.0752 35.3801 26.0991 35.3973 26.0836 35.345 26.0963L35.1199 26.1527C35.0834 26.184 35.1308 26.16 35.0462 26.1998 35.0385 26.2035 35.018 26.2174 35.0118 26.2087 35.0053 26.1996 34.987 26.2131 34.9747 26.2155L34.5288 26.4417C34.4877 26.4873 34.5383 26.4428 34.4682 26.5009 34.3904 26.5654 34.575 26.4454 34.4162 26.5311 34.054 26.7688 33.8 27.1016 33.5564 27.5219 33.2378 28.0715 33.2299 28.2832 33.2236 29.0159L33.22 30.3784C33.221 30.7152 33.2604 30.7154 33.1153 30.7313 32.887 30.7563 32.4037 30.7282 32.147 30.7282 30.0118 30.7282 27.5067 30.6855 25.4216 30.7433L23.6167 30.8043 23.1127 30.8849 22.7175 30.9629 22.5361 31.0201 22.225 31.1163C22.1718 31.1558 22.265 31.1118 22.1531 31.1629 22.0712 31.2003 22.1555 31.1658 22.0613 31.1855 21.2262 31.431 20.2344 32.1717 19.6653 32.6833 18.7458 33.5097 18.5697 33.9087 17.9972 34.8229 17.9657 34.9558 18.0075 34.8809 17.9166 34.9568L17.6961 35.4908 17.5995 35.7178 17.5562 35.8436C17.5487 35.8769 17.5407 35.9273 17.5263 35.9576 17.4944 36.0248 17.5147 35.9807 17.4717 36.0212 17.4543 36.2948 17.1901 36.7449 17.1578 37.5164 17.1097 38.6632 17.063 39.91 17.0681 41.0513 17.0698 41.4376 17.0001 42.5195 17.0592 42.7994 17.1168 43.0695 17.046 43.517 17.0402 43.8118L23.3265 43.8078C23.3344 43.0318 23.331 42.2492 23.3261 41.473 23.3168 39.9911 23.1151 38.7056 24.3297 37.7847 24.6408 37.5488 25.4022 37.0942 25.9323 37.0005L26.1842 36.905C26.2761 36.9085 26.7233 36.8274 26.8995 36.8127 28.1817 36.7061 31.1618 36.7333 32.4573 36.733 34.6183 36.7325 36.7792 36.73 38.9401 36.73 39.4931 36.73 51.6426 36.77 51.8445 36.7117 51.9111 36.518 51.8653 34.2042 51.8653 33.7846 51.8653 33.3718 51.9141 30.9483 51.8367 30.7516 51.2014 30.7807 50.4546 30.7365 49.8022 30.7364 49.1352 30.7363 48.4692 30.7437 47.8022 30.7368 46.7127 30.7256 45.3441 30.7458 44.2849 30.7097 44.2006 30.7068 44.127 30.7059 44.0428 30.7059 44.0076 30.7059 43.9377 30.707 43.9057 30.7009 43.8291 30.6865 43.8645 30.7034 43.8242 30.6625 43.7495 30.324 43.809 29.6037 43.7728 29.1974 43.7309 28.7275 43.7639 28.2796 43.6541 27.8254 43.4882 27.1385 42.7694 26.4574 42.1593 26.2264 42.0785 26.2048 42.1482 26.2342 42.0714 26.1998 42.0218 26.1776 42.0287 26.172 42.0027 26.1509L41.7028 26.0738 41.4791 25.9973 41.3636 25.963 41.3728 20.0086 44.9053 19.9727C44.9903 20.1054 45.0599 20.2629 45.1504 20.3802 45.43 20.7423 45.7768 21.0452 46.1788 21.3318 46.8165 21.7865 47.275 21.8903 48.2849 21.8902 49.1776 21.8902 49.5848 21.7952 50.3846 21.2927 51.2243 20.7651 51.3275 20.2671 51.6057 19.9322 51.6316 19.8373 51.6017 19.9125 51.6434 19.8396 51.6476 19.8321 51.6626 19.8317 51.6661 19.8155 51.6697 19.7989 51.6834 19.8008 51.6919 19.7934 51.6889 19.7529 51.8578 19.3199 51.8836 19.1207 51.9176 18.8577 51.908 18.5478 51.9054 18.2779 51.8993 17.6473 51.8285 17.3935 51.5411 16.8983 51.0894 16.1201 50.5552 15.5968 49.6434 15.2609 49.5664 15.2399 49.6241 15.2667 49.5571 15.2332 49.4991 15.2042 49.5302 15.2152 49.4957 15.1805 49.2078 15.1178 49.0687 15.044 48.7001 15.0391 48.4064 15.0353 48.0709 15.029 47.7801 15.0487 47.0642 15.097 46.8548 15.2364 46.355 15.4761 46.3199 15.516 46.3557 15.4845 46.2964 15.5342 46.2183 15.5998 46.394 15.4842 46.2458 15.5636 45.6753 15.9139 45.2076 16.3776 44.9182 16.9571L41.174 16.9512C40.8421 16.3585 40.2055 15.6323 39.5051 15.4206 39.3953 15.3982 39.3699 15.4189 39.3237 15.3287 39.2221 15.3348 38.9053 15.266 38.7342 15.2585 37.6868 15.2125 36.9696 15.5096 36.2816 16.1989 36.0641 16.4169 35.9125 16.739 35.8016 16.8825 35.7553 16.9425 35.7784 16.9267 35.6989 16.9562L32.1817 16.9506C32.0803 16.832 32.0953 16.7134 31.8081 16.3908 31.5495 16.1003 30.5921 15.2023 30.1885 15.2568 30.151 15.2422 30.0993 15.225 30.0634 15.2076 30.024 15.1884 30.0204 15.1796 30.0004 15.1652 29.6891 15.1136 29.444 15.0293 29.0761 15.0064 28.6806 14.9818 28.3953 15.0345 28.0487 15.054L28.0484 15.0541zM17.374 48.1883 17.3188 48.3021C17.0272 48.8925 16.6919 49.4953 16.4531 50.1819 16.436 50.2705 16.4616 50.1942 16.4314 50.2737 16.3932 50.3744 16.4112 50.3096 16.3865 50.3431 16.3178 50.609 16.2273 50.8236 16.1548 51.0853 15.9833 51.7043 15.9122 53.1336 16.1652 53.6844 16.5611 54.5466 17.2825 55.2886 18.2093 55.5836 18.3301 55.6195 18.3503 55.6125 18.4401 55.6791L18.7333 55.7421 18.996 55.8124C19.3736 55.8589 19.7067 55.8949 20.1104 55.8671 20.5228 55.8388 20.7457 55.7557 21.1023 55.6853 21.1869 55.6264 21.1547 55.6415 21.27 55.6207 22.5154 55.2002 23.4302 54.1153 23.5476 52.8926 23.6309 52.0243 23.4637 51.8535 23.4597 51.4386 23.4175 51.3853 23.4655 51.4837 23.4175 51.375 23.4012 51.3381 23.4178 51.3732 23.4025 51.326 23.3859 51.2752 23.375 51.2296 23.354 51.1743 23.3826 51.0613 23.3133 50.9359 23.2872 50.8203 23.2202 50.7323 23.2067 50.6601 23.1855 50.5394 23.1418 50.2137 22.6875 49.2727 22.5126 48.9128 22.3718 48.623 22.2557 48.3996 22.1157 48.1559 21.9879 47.9337 21.8264 47.6791 21.7032 47.4525L21.6241 47.3384C21.4214 46.9815 20.4585 45.5816 20.1251 45.3508 19.9481 45.2282 19.5538 45.1993 19.2639 45.4763 19.0918 45.6407 18.3736 46.6083 18.248 46.7917L17.3742 48.1882 17.374 48.1883z" fill="#80bd00"/><rect x=".5" y=".5" width="67" height="67" rx="4.5" stroke="#80bd00"/></svg>