<svg width="68" height="68" viewBox="0 0 68 68" fill="none" xmlns="http://www.w3.org/2000/svg"><path fill-rule="evenodd" clip-rule="evenodd" d="M67.9319 36.6103V61.1456C67.9319 64.8929 64.8928 67.9319 61.1454 67.9319L41.6483 67.932 27.2401 54.4362C27.2009 54.3995 27.1625 54.3618 27.1246 54.3237L27.1168 54.3158C26.26 53.4525 25.7359 52.2576 25.7359 50.931L25.7369 46.2546 7.20977 28.9007C6.63027 28.3579 6.18617 27.6 6.0936 26.6552 5.93127 24.997 6.81704 23.8634 7.68598 23.2602 8.86885 22.4391 10.4515 22.6506 12.0791 22.6506H28.0576L25.7366 20.4766 25.7358 20.3448 25.7359 17.0689C25.7359 14.3494 27.8565 12.2802 30.5274 12.2802H40.0447C41.3094 12.2802 42.4328 12.7434 43.27 13.5108 43.2747 13.515 43.2793 13.5192 43.2839 13.5234 43.2916 13.5305 43.2994 13.5375 43.3071 13.5447L67.9319 36.6102V36.6103z" fill="#e1dbdb"/><path fill-rule="evenodd" clip-rule="evenodd" d="M6.0936 26.6551C6.23455 28.0942 7.19097 29.0994 8.19922 29.5719 8.9234 29.9113 9.50995 29.8953 10.3894 29.8953H32.9067C34.5733 29.8953 36.0699 30.1117 37.2956 29.2847 39.5695 27.7505 39.4413 24.2153 36.789 22.9814 36.0442 22.635 35.5161 22.6506 34.5963 22.6506H12.0791C10.4515 22.6506 8.86885 22.4391 7.68598 23.2602 6.81703 23.8634 5.93129 24.997 6.0936 26.6552V26.6551zM38.5668 40.931C38.47 41.544 38.2879 41.9792 37.9667 42.4045 37.2446 43.3605 37.3256 42.5709 37.3256 43.8276 37.3256 45.2588 37.5558 46.5234 36.584 47.2304 35.5642 47.9722 34.3221 47.5734 33.7961 46.6618 33.4411 46.0465 33.5499 44.6868 33.5499 43.7931 33.5499 43.6198 33.55 43.4469 33.5515 43.2737 33.5536 43.029 33.5559 43.0439 33.4013 42.92 31.7154 41.5692 31.9391 38.6159 34.1718 37.6437 36.4609 36.6467 38.9346 38.6014 38.5668 40.931zM25.7366 20.4766C26.1194 20.5345 33.3073 20.4909 33.9067 20.4909 35.3994 20.4909 36.2652 20.4311 37.5388 20.9519 38.5365 21.36 39.3051 22.048 39.8396 22.7214 41.1545 24.3779 41.5149 26.9384 40.369 29.0163 39.4856 30.6181 37.7363 32.0567 35.2515 32.0596L25.7397 32.0752 25.7359 50.931C25.7359 53.5834 27.8302 55.7105 30.4929 55.7106H40.0102C42.6909 55.7106 44.8028 53.6467 44.8024 50.931L44.8023 17.0689C44.8023 14.3914 42.7454 12.2802 40.0446 12.2802H30.5274C27.8565 12.2802 25.7359 14.3494 25.7359 17.0689L25.7358 20.3448 25.7366 20.4766z" fill="#80bd00"/><rect x=".5" y=".5" width="67" height="67" rx="4.5" stroke="#80bd00"/></svg>