<svg width="68" height="68" viewBox="0 0 68 68" fill="none" xmlns="http://www.w3.org/2000/svg"><path fill-rule="evenodd" clip-rule="evenodd" d="M32.9683 12.2449C32.3916 12.3203 32.0278 12.4135 31.6552 12.5953 30.7547 13.0301 30.1513 13.9174 30.0005 15.0219 29.9739 15.2127 29.9384 15.9712 29.9251 16.7076 29.9073 17.6082 29.8763 18.145 29.8364 18.3358 29.69 18.9879 29.202 19.5912 28.5454 19.9283 27.6715 20.3808 26.8109 20.4074 26.0302 20.017 25.7242 19.8641 25.5749 19.7593 25.0271 19.2369L24.4933 18.7212C23.5617 17.8213 23.2325 17.5559 22.7873 17.342 22.3171 17.1158 21.9667 17.0359 21.4564 17.0359 20.4716 17.0359 19.6997 17.4529 18.5508 18.6108 17.2421 19.9239 16.7985 21.1616 17.2022 22.3638 17.2421 22.4792 17.3574 22.7364 17.455 22.9316 17.6191 23.2466 17.7567 23.4063 18.6838 24.3512 19.2606 24.9368 19.7973 25.5135 19.8772 25.6288 20.374 26.3564 20.4805 27.1105 20.2143 27.9533 19.9215 28.8761 19.265 29.5016 18.3068 29.7677 18.0939 29.8254 17.7257 29.8476 16.4879 29.8742 15.2991 29.9008 14.8687 29.9274 14.6558 29.9807 13.4802 30.2779 12.6994 31.0542 12.3756 32.2476 12.2914 32.5715 12.2825 32.7179 12.278 33.8668 12.2736 35.517 12.349 35.903 12.8103 36.6172 12.9245 36.7943 13.0374 36.9371 13.1691 37.0643L19.2265 42.9162C19.0645 43.0874 18.8794 43.2774 18.6661 43.4933 17.6857 44.487 17.5748 44.6112 17.4019 44.9528 17.1356 45.463 17.0425 45.7912 17.0114 46.297 16.9804 46.8071 17.0425 47.1753 17.2199 47.5524 17.4294 47.9888 18.0861 48.7505 18.7732 49.4142 25.163 55.5866 31.5524 61.7593 37.9419 67.932L61.1458 67.9319C64.8932 67.9319 67.9322 64.8929 67.9323 61.1457V36.5556L49.3397 18.5936C49.3288 18.5831 49.3179 18.5725 49.3068 18.5619 48.2732 17.5639 47.346 17.0936 46.41 17.0847 45.9353 17.0847 45.6381 17.1513 45.1811 17.3687 44.6843 17.6038 44.2851 17.9365 43.5043 18.7572 43.4122 18.8542 43.3246 18.945 43.2402 19.0309L37.071 13.071C36.8604 12.8675 36.6222 12.6993 36.3621 12.5731 35.8165 12.307 35.5103 12.2582 34.2327 12.2405 33.6249 12.2316 33.0527 12.2359 32.9684 12.2448L32.9683 12.2449z" fill="#e1dbdb"/><path d="M32.9683 12.2448C32.3916 12.3202 32.0278 12.4135 31.6552 12.5953 30.7547 13.0301 30.1513 13.9174 30.0005 15.0218 29.9739 15.2127 29.9384 15.9712 29.9251 16.7076 29.9073 17.6082 29.8763 18.1449 29.8364 18.3357 29.69 18.9878 29.202 19.5912 28.5454 19.9283 27.6715 20.3808 26.8109 20.4074 26.0302 20.017 25.6486 19.8263 25.5111 19.7109 24.5396 18.766 23.5725 17.83 23.2398 17.5594 22.7873 17.342 22.3171 17.1158 21.9667 17.0359 21.4564 17.0359 20.4716 17.0359 19.6997 17.4529 18.5508 18.6107 17.2421 19.9239 16.7985 21.1615 17.2022 22.3638 17.2421 22.4791 17.3574 22.7364 17.455 22.9316 17.6191 23.2465 17.7567 23.4063 18.6838 24.3512 19.2606 24.9367 19.7973 25.5135 19.8772 25.6288 20.374 26.3563 20.4805 27.1104 20.2143 27.9533 19.9215 28.8761 19.265 29.5016 18.3068 29.7677 18.0939 29.8253 17.7257 29.8476 16.4879 29.8742 15.2991 29.9008 14.8687 29.9274 14.6558 29.9807 13.4802 30.2779 12.6994 31.0542 12.3756 32.2476 12.2914 32.5714 12.2825 32.7178 12.278 33.8668 12.2736 35.517 12.349 35.903 12.8103 36.6172 13.0277 36.9544 13.2407 37.1673 13.5867 37.3847 14.1811 37.7618 14.5893 37.8505 15.9999 37.9037 17.8898 37.9791 18.3689 38.0457 18.9057 38.3296 19.5134 38.6489 19.9393 39.1725 20.1743 39.8822 20.2853 40.2194 20.303 40.3436 20.303 40.765 20.303 41.7188 20.13 42.0115 18.6661 43.4932 17.6857 44.487 17.5748 44.6112 17.4018 44.9527 17.1356 45.4629 17.0425 45.7912 17.0114 46.297 16.9804 46.8071 17.0425 47.1753 17.2199 47.5523 17.5925 48.3286 19.3803 50.1342 20.2365 50.5867 20.6402 50.804 20.9152 50.8706 21.3899 50.8706 22.0332 50.875 22.5611 50.702 23.1644 50.3028 23.3329 50.1918 23.9363 49.6462 24.5041 49.0917 25.5643 48.0625 25.8261 47.8584 26.3096 47.6899 26.6556 47.5701 27.2723 47.5479 27.6671 47.6366 28.0575 47.7298 28.6164 48.0004 28.9224 48.2444 29.2508 48.5018 29.5702 48.9764 29.7166 49.4111 29.8408 49.7704 29.8408 49.7749 29.8408 51.0791V52.3878L30.0537 53.0088C30.4885 54.282 30.8478 54.841 31.4689 55.1915 32.6223 55.8525 34.0286 55.9633 35.5856 55.5108 36.6769 55.1959 37.2758 54.7656 37.6174 54.0424 37.9413 53.3726 37.959 53.2395 37.9634 51.6115 37.9679 50.1342 37.9856 49.9567 38.1586 49.4333 38.3583 48.8388 38.7797 48.3243 39.3874 47.9294L39.7158 47.7121 39.1923 47.2817C38.9039 47.0422 38.4692 46.6562 38.2252 46.4211 37.3646 45.5871 37.0673 45.5162 35.5635 45.7602 35.04 45.8489 34.7739 45.8622 33.8333 45.8666 32.7022 45.8666 32.3516 45.8356 31.4822 45.6626 28.1152 44.9883 25.1163 42.779 23.4394 39.7447 22.3747 37.8061 21.8512 35.4594 22.0065 33.3122 22.2372 30.1759 23.466 27.4565 25.5643 25.4114 27.219 23.8099 29.1975 22.7852 31.5931 22.2928 32.9816 22.0088 35.0001 21.9778 36.3398 22.2262 39.1523 22.7408 41.7653 24.4 43.5929 26.8354 44.7863 28.4235 45.5226 30.2157 45.7933 32.181 45.882 32.8154 45.8731 34.2881 45.7712 35.0866 45.6336 36.1913 45.7179 36.9277 46.0594 37.6197 46.2991 38.1077 46.6184 38.4803 47.2483 39.0083 47.5456 39.2567 47.7896 39.4563 47.7984 39.4563 47.8073 39.4563 47.9936 39.2833 48.211 39.066 48.6591 38.6267 49.0229 38.3961 49.5374 38.2275 49.8879 38.1122 49.9189 38.1077 51.4671 38.0811 53.1396 38.05 53.2194 38.0412 53.8139 37.7972 54.639 37.4601 55.3222 36.6793 55.544 35.8098 55.7703 34.9315 55.7835 33.1525 55.5706 32.3141 55.34 31.3958 54.812 30.7216 54.0135 30.3356 53.3703 30.025 53.1795 29.9984 51.4006 29.9629 49.8169 29.9363 49.7992 29.9319 49.4487 29.8121 48.7611 29.577 48.2199 29.0978 47.8961 28.4324 47.408 27.4388 47.5411 26.4495 48.2953 25.4602 48.424 25.2872 48.9031 24.777 49.3555 24.3246 50.4291 23.2421 50.6997 22.834 50.8727 22.0223 51.0014 21.4233 50.9126 20.8156 50.6021 20.1812 50.3625 19.6843 49.9855 19.214 49.3067 18.5619 48.2731 17.5638 47.3459 17.0936 46.4099 17.0847 45.9352 17.0847 45.6381 17.1513 45.1811 17.3686 44.6842 17.6038 44.285 17.9365 43.5042 18.7571 42.3464 19.9771 41.8362 20.3009 40.9978 20.3631 39.9775 20.4385 38.793 19.7686 38.3672 18.8725 38.0921 18.2869 38.061 18.0562 38.0256 16.3217 37.999 15.0884 37.9767 14.7158 37.9191 14.5162 37.6663 13.6334 37.1028 12.9325 36.362 12.5731 35.8164 12.307 35.5103 12.2582 34.2326 12.2405 33.6248 12.2315 33.0526 12.236 32.9683 12.2449V12.2448v0zM33.1945 25.1053C32.9638 25.1408 32.5601 25.2251 32.2984 25.2872L31.8193 25.4069 31.9125 25.5445C31.9657 25.62 32.7908 26.4584 33.7446 27.4121 34.8981 28.5611 35.5635 29.2532 35.7187 29.475 36.3797 30.4288 36.6814 31.4845 36.566 32.4473 36.4373 33.4897 35.9539 34.3902 35.0621 35.2509 34.45 35.8409 33.8644 36.1958 33.1147 36.4265 32.7553 36.5374 32.6622 36.5462 31.9924 36.5462 31.3225 36.5462 31.2248 36.5374 30.87 36.4265 30.3952 36.2801 29.823 35.9962 29.375 35.6857 29.0068 35.4283 28.0619 34.4923 26.5403 32.8776 25.9946 32.3009 25.5244 31.8262 25.4978 31.8262 25.4711 31.8262 25.378 31.875 25.2892 31.9326 25.1384 32.0346 25.1295 32.0612 25.0807 32.4117 24.8234 34.2394 24.9787 35.8719 25.5421 37.2959 26.4914 39.7048 28.776 41.8386 31.2648 42.6505 32.1165 42.9299 32.7021 43.0186 33.7002 43.023 34.8136 43.0275 35.5278 42.9122 36.8011 42.5173 37.116 42.4197 37.329 42.3843 37.5597 42.3843 38.163 42.3843 37.9456 42.1979 42.2842 46.5143 44.418 48.6437 46.33 50.5246 46.5252 50.6976 46.9466 51.0658 47.2661 51.2654 47.6875 51.4252 47.9536 51.5272 48.0468 51.5405 48.5614 51.5405 49.0449 51.5405 49.1824 51.5228 49.4042 51.4429 49.8612 51.2699 50.2694 50.9948 50.6907 50.5734 51.3296 49.9302 51.5958 49.3846 51.6313 48.6392 51.6667 47.9871 51.4804 47.4016 51.0501 46.8027 50.8593 46.5365 47.7895 43.4578 44.2937 40.0286 42.8343 38.5914 42.5371 38.2808 42.4439 38.0767 42.2886 37.7484 42.2975 37.5222 42.4883 36.9189 42.892 35.6369 43.0161 34.7718 42.9806 33.5785 42.9407 32.2343 42.6879 31.2185 42.1068 30.0295 40.9134 27.594 38.4735 25.6954 35.8739 25.1675 35.244 25.0433 33.8333 25.0078 33.1945 25.1054V25.1053zM48.9607 47.0599C49.3999 47.1753 49.7238 47.4148 49.8879 47.7476 50.0254 48.0226 50.052 48.1512 50.052 48.5372 50.052 48.9364 49.9144 49.2736 49.635 49.5619 48.8897 50.3338 47.6343 50.1164 47.133 49.1272 46.8757 48.6126 47.0177 47.8452 47.4524 47.4459 47.8738 47.0555 48.424 46.9135 48.9607 47.0599z" fill="#80bd00"/><rect x=".5" y=".5" width="67" height="67" rx="4.5" stroke="#80bd00"/></svg>