<svg width="46" height="50" viewBox="0 0 46 50" fill="none" xmlns="http://www.w3.org/2000/svg"><path fill-rule="evenodd" clip-rule="evenodd" d="M31.5652 45.9928C32.0913 46.0373 32.7109 46.2139 33.2738 46.2897 35.1881 46.5473 36.9229 46.6228 38.8783 46.3734 40.465 46.1711 42.7954 45.5933 43.831 44.3523 44.0132 44.1342 44.0687 43.9394 44.2324 43.7409 44.1288 44.4822 42.8797 45.3567 42.1462 45.6712 39.203 46.9327 35.127 46.8948 31.9882 46.1349L31.5652 45.9928zM2.21517 45.0918C1.94791 44.7504 1.83543 44.1357 1.76789 43.6395 1.70132 43.1525 1.68906 43.2144 1.87917 42.8754 2.07505 42.526 1.88518 42.2564 2.03395 42.0178 2.16614 42.2188 2.65571 43.2271 2.61846 43.4155 2.58 43.6099 2.43027 43.923 2.36754 44.1858 2.30746 44.4384 2.31178 44.8835 2.21541 45.0918H2.21517zM3.24287 39.3594C3.34093 39.6062 3.35847 40.0772 3.4945 40.4129 3.97567 41.6007 4.28643 40.8048 3.45052 41.935 3.31016 42.1249 3.15682 42.5077 2.93042 42.6229 2.81145 42.291 2.23463 41.1784 2.26684 40.8467 2.30217 40.484 2.99628 39.5074 3.24287 39.3596V39.3594zM3.44187 45.2873C3.97999 43.8105 3.89059 43.6331 4.84907 42.5302 5.42036 41.8729 6.4233 41.293 7.40606 40.8954 9.19853 40.1701 13.0613 39.8252 14.8316 40.5007 15.8639 40.8945 16.8383 41.2634 17.8626 41.6711 19.06 42.1479 21.8607 44.082 23.0244 44.9118 23.6039 45.3249 25.0118 46.1989 25.4783 46.6974 24.7159 47.1531 17.6665 48.1875 16.2314 48.3336 14.1772 48.543 7.71129 49.1512 6.14619 48.3576 7.36112 48.1621 9.16993 48.0676 9.95392 47.4058 9.08845 47.493 8.52605 47.8095 7.41423 47.8151 6.41105 47.8203 5.6196 47.7415 4.73683 47.4832 3.76273 47.198 3.49907 46.9543 3.26233 45.9761 2.73502 43.7955 4.77865 41.3996 6.49445 40.4143 7.27267 39.9676 10.4272 38.8922 11.3897 39.4189 10.1027 39.853 8.52341 39.5184 6.12552 41.0608 5.06177 41.7449 3.37698 43.4191 3.44163 45.2868L3.44187 45.2873zM4.39146 40.798 3.84805 39.7808C4.08046 39.677 6.23271 37.3343 10.2142 37.9822L10.2842 38.4294C8.74284 38.6882 8.30902 38.6339 6.91673 39.1736 5.4242 39.7521 4.79427 40.6406 4.3917 40.798H4.39146zM23.8574 37.6917 24.4556 37.6877C24.4871 37.8817 24.4934 38.2097 24.3672 38.3273 24.3105 38.4377 24.5289 38.4085 24.2196 38.4245L22.2238 38.4226 22.2748 37.6818 23.8579 37.6917H23.8574zM15.663 38.0897C15.7082 38.3979 15.7012 38.372 15.4424 38.3636 15.4907 38.2099 15.501 38.1528 15.663 38.0897zM25.0296 38.4047 25.014 37.7785C25.3122 37.7055 25.9249 37.7681 26.2673 37.7702L26.2661 38.2949 25.0296 38.4047zM18.9975 37.6691C19.5825 37.5425 20.8522 37.6281 21.5129 37.6467L21.4896 38.3673 19.135 38.2998C18.811 38.2405 18.9648 38.049 18.9975 37.6693V37.6691zM17.1683 37.7307 18.3969 37.6542 18.3762 38.2365 17.1103 38.261 17.1683 37.7307zM12.2297 37.8123 15.2039 38.4694C15.1407 38.5962 15.2811 38.4562 15.1052 38.5993 15.0864 38.6146 14.9247 38.6967 14.9069 38.704 13.9671 39.0827 13.2315 38.6061 12.5018 38.1067 12.4547 38.0744 12.4004 38.0358 12.3686 38.0046 12.2095 37.8474 12.2831 37.8785 12.2297 37.8123zM26.8439 38.2123 26.8422 37.8808C27.0006 37.7747 27.0117 37.7799 27.3628 37.8032L28.8169 37.8589C28.2122 38.0182 27.5226 38.1751 26.8437 38.2123H26.8439zM42.3911 39.0112C42.5538 39.0994 42.6132 39.186 42.7189 39.3702 42.5096 39.2618 42.4214 39.23 42.3176 39.0651 41.6482 38.5407 40.8133 38.0405 39.7851 37.7406 38.9888 37.5082 37.0558 37.176 36.2877 37.5178 38.5154 37.6018 39.5875 37.821 41.1197 38.8512 41.6285 39.1933 44.0377 41.4845 43.6301 42.3776 42.6062 44.6212 37.3447 45.223 34.194 45.3496 30.213 45.5096 26.861 44.6398 23.8538 43.2697 22.4267 42.6194 20.975 41.9964 19.5635 41.373 18.7939 41.0331 15.4674 39.8325 15.1573 39.5973 16.4054 38.871 20.8133 39.2844 22.5368 39.3427 25.1481 39.4312 27.432 39.15 29.8227 38.6346 32.0314 38.1584 34.1803 37.5658 36.4463 37.2442 38.8648 36.9009 41.485 37.3583 42.3906 39.0115L42.3911 39.0112zM6.43989 37.6444C6.29112 37.8356 6.10293 37.8996 5.90585 37.97 5.52755 38.1542 5.08172 38.4819 4.80845 38.7047 4.52389 38.9369 4.04008 39.5163 3.85285 39.5893L3.83891 38.8865C3.58391 38.7132 4.14895 39.0312 3.71706 38.8425 3.532 38.7616 3.68269 38.8931 3.5356 38.7463 3.83266 38.5805 3.90957 38.2163 4.87094 37.7022 5.42901 37.4039 6.03563 37.2435 6.7331 37.156 7.57214 37.0506 10.4449 37.243 11.0297 37.5712 10.3683 37.9215 8.7176 37.7378 7.90429 37.623L9.49126 37.5002C8.50947 37.167 6.54323 37.6481 6.43989 37.6444zM26.9148 36.1116 31.1059 36.2422 31.2145 37.3957 26.8716 37.272 26.9148 36.1116zM26.3668 36.0884 26.2899 37.2543 25.0851 37.1696 25.186 36.0648 26.3671 36.0884H26.3668zM22.4334 35.9801 24.5345 36.046 24.4778 37.1122C24.2309 37.2879 23.6803 37.1701 23.3731 37.1677 23.0045 37.1651 22.6889 37.1444 22.3233 37.1343L22.4337 35.9799 22.4334 35.9801zM19.1777 35.943 21.6021 35.9663 21.5792 37.1035 19.0665 37.1115 19.1777 35.9432V35.943zM16.7705 36.0851 16.6311 37.2621 16.3025 37.256C16.2912 37.2576 16.2744 37.2609 16.2631 37.2632 15.4565 37.4293 15.4205 37.3778 14.5185 37.3689L14.6865 36.2396 15.276 36.2458 16.7702 36.0851H16.7705zM18.6105 35.9644 18.5082 37.1167 17.2257 37.1882 17.3343 36.0335 18.6108 35.9644H18.6105zM40.6626 35.8324C41.5079 35.8712 42.7403 36.485 43.434 36.8384L43.3345 38.5506C43.1256 38.449 42.4849 37.6437 42.1078 37.3552 41.7215 37.06 40.9861 36.6365 40.4929 36.5483L40.6626 35.8324zM2.44565 38.5506 2.34615 36.8384C3.0429 36.4834 4.27345 35.8712 5.11753 35.8324L5.28721 36.5483C3.81536 36.8116 2.72637 38.4139 2.44565 38.5506zM37.0642 35.001C37.1606 34.8805 37.0339 34.9756 37.2132 34.8643 37.2658 34.8316 37.3206 34.8187 37.3817 34.7914 37.7006 34.6486 38.0222 34.4832 38.3784 34.4302 38.2681 34.6189 38.1255 34.7175 38.0929 34.9156L37.0642 35.001zM7.68606 34.9314C7.65457 34.7175 7.51229 34.6189 7.40197 34.4302 7.64712 34.4665 7.87473 34.5596 8.10401 34.6559 8.31816 34.7457 8.57821 34.8292 8.71616 35L7.68606 34.9314zM41.7504 33.7873 42.0703 32.6364 42.0775 32.5609 43.0761 32.7352C43.3155 34.0694 43.6419 34.5006 43.5287 36.0615L40.7832 35.46 39.6219 35.456 39.1722 35.5459 39.3179 35.6414 40.0918 35.6957 39.962 36.3384 38.0296 36.1778 38.2065 35.6343C37.4725 35.675 37.6494 35.6792 37.4579 36.1898L35.3099 36.478C35.6024 35.9505 36.9702 35.4939 37.691 35.3414L37.7006 35.6388C38.6639 35.4033 38.2633 35.3842 38.5413 35.2158 38.8026 35.0577 39.3414 35.1706 39.6166 35.0247L38.3543 34.9222C38.6694 34.7093 38.6449 35.0673 39.0088 34.6086 39.1549 34.4241 39.2917 34.1952 39.465 34.123 39.3859 34.0108 39.4501 34.0183 39.204 34.0456 38.6334 34.0258 38.0522 34.1952 37.5475 34.3611 37.1615 34.4879 36.3946 34.8507 36.1302 34.9036 36.0086 35.048 36.0901 34.9975 35.8534 35.0443L36.0605 34.8227C36.6609 34.2409 38.7271 32.3117 39.6495 32.0024 39.6683 32.679 39.6923 32.679 39.1251 32.9048L39.5262 32.926 38.8665 33.9562C40.0033 33.8781 39.7635 33.4932 40.1769 32.7157L41.4716 32.5915C41.3968 33.6732 40.7419 33.7374 41.7506 33.7868L41.7504 33.7873zM9.72007 34.8231 9.91402 35.0556C9.69051 34.9979 9.77174 35.0483 9.65037 34.9041 9.37422 34.8485 8.633 34.4907 8.23644 34.362 7.74326 34.2018 7.13592 34.0254 6.57568 34.0463 6.43484 34.0369 6.31587 33.9795 6.31587 34.1225 6.4894 34.1962 6.62303 34.4248 6.7706 34.6095 7.13496 35.0654 7.11284 34.7104 7.42721 34.9389L6.15965 35.0535C6.46945 35.1438 6.98162 35.06 7.23878 35.2158 7.44932 35.3433 7.25104 35.4974 8.11867 35.6348L8.14006 35.3365C8.80965 35.4936 10.1779 35.9507 10.4707 36.4735L8.32128 36.1966C8.13069 35.6792 8.30758 35.6748 7.57045 35.6352L7.73004 36.1559 5.82077 36.3589 5.70108 35.6936 6.462 35.6414 6.60068 35.5313 6.15797 35.456 4.99664 35.46 2.25386 36.0724C2.13706 34.4893 2.47834 34.0736 2.69753 32.711L3.70216 32.5606 3.70937 32.6364l.31989 1.1509C5.03149 33.7383 4.38905 33.68 4.31166 32.5682L5.56937 32.7517C6.06327 33.2154 5.5636 33.8647 6.92225 33.952L6.27742 32.8658 6.93067 32.994 6.17527 32.6762 6.13057 32.0028C7.05324 32.3122 9.11633 34.2385 9.71959 34.8231H9.72007zM40.2146 31.6678C40.4951 31.442 41.0075 31.1437 41.4026 31.0656 41.4516 31.4328 41.5093 31.8172 41.4675 32.2212L40.2143 32.5131 40.2146 31.6678zM4.37704 31.0651C4.76879 31.1423 5.28961 31.4415 5.56408 31.6678L5.57009 32.5065 4.28138 32.2367 4.37704 31.0653V31.0651zM35.0196 33.1864C34.9449 32.6006 35.2929 31.147 35.3751 30.5191 35.7517 31.0418 35.3032 32.7371 35.0196 33.1864zM10.7603 33.1864C10.4764 32.7364 10.0289 31.0437 10.4048 30.5191 10.487 31.1467 10.835 32.6006 10.7603 33.1864zM24.5984 30.476C24.8272 30.4847 24.9032 30.4567 25.0904 30.5435 25.0868 30.6416 25.1 30.6623 25.0685 30.7825 24.9894 31.0853 25.0673 30.84 24.9729 30.9498L24.559 35.5106 22.5416 35.4548C22.3971 34.8961 23.0076 30.9978 23.2212 30.4282L24.5982 30.476H24.5984zM2.62062 30.2937 3.82666 30.7818 3.69831 32.1638 2.79247 32.1739 2.62062 30.2937zM25.8427 30.5358 26.8701 30.5805 26.3721 35.5649 25.1913 35.5063 25.8427 30.5358zM21.5973 32.4929 21.6451 35.415C21.3646 35.5666 19.5914 35.5096 19.1818 35.4633 19.1441 35.261 19.1619 34.8855 19.2657 34.7043L19.1532 30.1241 19.0828 30.1137 21.5006 30.3346 21.5973 32.4929zM31.1165 31.793 30.9751 31.7777 31.0208 35.7105 26.9605 35.5816C26.9932 34.5982 27.1943 31.5394 27.4477 30.7346 27.5585 30.3824 29.354 30.4929 29.8232 30.452 30.5598 30.3878 31.4912 30.2165 32.1855 30.1911 32.0764 31.0938 31.8978 31.8887 31.8252 32.8517 31.7642 33.6628 31.7978 34.8968 31.6361 35.6576L31.1162 31.7932 31.1165 31.793zM18.5944 35.4026C18.4702 35.5327 18.5858 35.4812 18.2993 35.4908L17.3466 35.5466C17.3269 35.3169 17.3471 35.0932 17.368 34.8631 17.3836 34.6914 17.3742 34.4091 17.4595 34.2644L17.2319 29.9742 18.5079 30.1001C18.5694 30.8141 18.9677 35.0986 18.5944 35.4028V35.4026zM14.8045 31.7775 14.6632 31.7928 14.164 35.6477 13.642 29.9406 13.5701 29.9476 16.6224 29.9328C16.8947 31.8469 17.02 33.5377 16.8104 35.5649L14.7894 35.7157 14.805 31.7772 14.8045 31.7775zM26.2097 28.88 27.2138 28.8795 26.9999 30.0245 25.9542 29.998 26.2097 28.8802V28.88zM23.6322 28.7706 25.3629 28.8576 25.1466 29.9867 23.327 29.901 23.6325 28.7706H23.6322zM18.786 28.3996 21.3165 28.5958 21.4358 29.7573 18.9773 29.566 18.7862 28.3996H18.786zm24.8587.1997C44.0228 28.7946 44.6085 30.0078 44.7251 30.3581 45.2507 31.9379 44.8318 36.9033 45.0433 38.5562 44.8933 38.3313 44.8815 36.1415 44.8635 35.8098 44.8159 34.9266 44.8337 33.9195 44.833 33.0288 44.8299 29.1555 43.8673 29.3858 43.6447 28.5993zM16.895 28.277 18.1808 28.3575 18.3801 29.5206 17.1029 29.4385 16.8952 28.277H16.895zM27.583 30.0085C27.6866 29.0621 27.7144 28.8784 28.0944 28.852 30.2241 28.7038 30.2337 28.7937 32.652 28.3855 32.5895 28.6111 32.2908 29.5025 32.3326 29.6674L27.583 30.0083V30.0085zM16.2965 28.2533 16.489 29.3265 13.3937 29.2997 13.0736 28.2232 16.2968 28.2535 16.2965 28.2533zM43.2059 28.1848C43.3902 28.254 43.552 28.4043 43.6447 28.5993 43.3818 28.5765 43.6197 28.6586 43.3905 28.402 43.2539 28.2493 43.2715 28.3368 43.2059 28.1848zm0 0C43.0501 28.1356 42.8716 28.0065 42.7572 27.8011 42.903 27.8823 43.0076 27.9479 43.1568 28.0582 43.3547 28.0589 43.2119 28.03 43.2056 28.1848H43.2059zM19.8221 27.9333C19.7699 27.448 19.75 26.9055 19.8048 26.4164L19.9276 26.0098C20.1619 26.0406 20.8895 26.4827 21 26.6443 21.1245 26.8262 21.2163 27.7618 21.236 28.0502L19.8221 27.9333zM22.9896 28.6325 23.2136 28.0726C23.3462 27.8336 23.1229 28.2116 23.2604 27.995L23.322 27.9192C23.2696 28.1827 23.2169 28.5753 23.0468 28.7483 23.0463 29.0179 22.4796 30.7952 22.3656 31.2131 21.9443 32.7573 22.269 33.3391 22.0599 34.0221 21.9388 32.942 21.9494 31.6968 21.8703 30.6047 21.8304 30.0532 21.7727 29.5154 21.7249 28.9602 21.6816 28.4582 21.5636 27.8757 21.5968 27.3805 21.5831 27.4797 21.8902 29.0012 21.9414 29.3439 22.0513 30.0798 22.0967 30.7943 22.1255 31.5481 22.2327 31.3441 22.4425 30.3939 22.5303 30.073 22.6613 29.594 22.8862 29.0593 22.9896 28.6325zM39.4217 28.2446 37.5595 29.5427 37.6102 29.5891 39.277 28.7066 39.3179 29.4576 39.6039 31.4265 40.118 31.234 40.1297 30.9585 39.8233 28.4504 40.9854 28.2947 41.3634 30.6979 41.8893 30.4831 41.591 28.3215C42.7151 28.4245 43.1076 29.0811 43.184 30.2062 43.2023 30.3344 43.303 30.5233 43.1395 30.6635L42.9963 32.1765 42.0657 32.167 41.9693 30.7673 42.7973 30.4226C42.9357 30.2934 42.5553 30.3377 42.916 30.3454L42.8278 30.3247 40.2958 31.2293C40.2117 31.3149 38.3938 32.1642 37.9861 32.4247 37.2259 32.91 36.678 33.3309 35.9685 33.8402 36.3838 32.8827 38.4224 30.4191 39.0182 30.0165L38.9571 29.965C38.3774 30.3661 37.8141 30.9651 37.2771 31.4909 37.0363 31.7269 35.8932 33.1358 35.7678 33.2085 35.9879 30.1269 35.1857 31.147 35.619 29.6326 35.9442 28.4968 36.3797 27.6119 36.7433 26.5676L39.0816 27.1252 39.1814 28.1627 39.3818 28.1952C39.4909 28.0862 39.4198 28.1443 39.575 28.0528 39.5873 28.0455 39.7118 27.9872 39.7334 27.9792L39.6731 27.276C39.9298 27.3014 40.1752 27.3725 40.4066 27.4275 40.7155 27.5009 40.8868 27.4513 40.8844 27.7632 40.6597 27.8397 40.365 27.867 40.1216 27.9547 39.8704 28.0453 39.6592 28.1843 39.4217 28.2453V28.2446zM6.39783 28.1947C6.69465 28.1514 6.62808 27.8044 6.69585 27.1158L9.04182 26.59C9.39008 27.6018 9.84024 28.4956 10.1609 29.6324 10.5891 31.1505 9.79193 30.1316 10.0118 33.2081 9.86812 33.1248 8.09752 30.8364 6.82251 29.9645L6.76147 30.0147C7.36929 30.4374 9.39056 32.87 9.81116 33.84 9.10191 33.3309 8.61666 32.9408 7.79397 32.4237 7.39933 32.1758 5.55832 31.3053 5.48357 31.2291L2.61245 30.2193C2.58097 29.1033 3.1388 28.4172 4.21961 28.3257L3.89443 30.5073 4.42366 30.6868 4.82263 28.2535 5.96497 28.4683 5.64965 30.958 5.6732 31.2326 6.16878 31.4025 6.46176 29.4569 6.53795 28.6678 8.1629 29.591 8.22322 29.5408 6.35745 28.2441C6.11999 28.1832 5.90849 28.0439 5.65758 27.9535 5.41435 27.8658 5.11969 27.8387 4.89473 27.762 4.89233 27.4501 5.06369 27.4997 5.37253 27.4263 5.60398 27.3715 5.84937 27.3002 6.11014 27.2753L6.05438 27.979C6.23031 28.0768 6.25002 28.0474 6.39735 28.1942L6.39783 28.1947zM18.5521 27.1247C18.7708 27.3343 19.2799 27.6418 19.4099 27.9011 18.7574 27.9154 18.4983 27.978 18.5521 27.1247zM26.3887 28.3568C26.4065 27.9533 26.6826 27.8618 26.9672 27.6134 27.2138 27.3979 27.4676 27.1452 27.675 27.0102L27.3426 28.3507 26.3887 28.3565V28.3568zM24.1353 27.3285C24.8726 27.1977 25.193 27.0638 25.8126 26.9137L25.4956 28.3189 23.7839 28.2354 24.1353 27.3285zM34.2798 36.6332C34.2779 34.6989 34.2782 33.0439 34.5993 31.1726 34.7437 30.3306 35.5577 27.1344 35.9593 26.7022 35.9058 27.2289 35.4827 28.3676 35.3186 28.9877 34.8281 30.8416 34.6757 32.0468 34.4964 33.9757 34.4416 34.5653 34.4055 36.2752 34.2798 36.6332zM11.1801 31.1726C11.5012 33.0441 11.5015 34.6989 11.4996 36.6332 11.3739 36.2752 11.3378 34.5653 11.283 33.9757 11.1037 32.0468 10.9513 30.8414 10.4608 28.9877 10.2966 28.3676 9.87365 27.2292 9.82005 26.7022 10.2217 27.1341 11.0357 30.3306 11.1801 31.1726zM32.4532 27.863C32.4917 27.6032 32.863 27.0737 33.0281 26.8005 33.2396 26.4514 33.1774 26.5674 33.3334 26.4931L32.846 27.8011 32.453 27.863H32.4532zM12.87 27.6289 12.4672 26.4862C12.6001 26.5641 12.5563 26.4815 12.7284 26.7641L13.2447 27.6508 12.87 27.6291V27.6289zM32.925 25.9256 32.242 27.8656C31.8957 28.118 28.5965 28.354 27.917 28.3118L28.4044 26.6213 32.925 25.9254V25.9256zM12.8486 25.9275C14.8237 26.0214 15.3623 26.7495 15.8519 25.8442L16.1699 27.6442 15.4541 27.6449C12.9846 27.6376 13.5256 27.8039 13.2012 26.8932 13.0933 26.5902 12.9003 26.1917 12.8484 25.9275H12.8486zM32.0656 36.6259C31.7716 36.0183 32.3033 31.4639 32.4871 30.6532 32.6919 29.7502 32.9342 28.9633 33.2416 28.1366 33.4422 27.5969 33.9926 26.1851 34.2577 25.8649 34.1892 26.2411 33.9494 26.7203 33.8105 27.0972 32.4823 30.6981 32.3165 32.6432 32.0656 36.6259zM13.292 30.6539C13.478 31.4742 14.0075 36.0192 13.7141 36.6259 13.5852 34.5825 13.4569 32.7599 13.0755 30.7931 12.6933 28.8231 11.5873 26.2239 11.5217 25.8651 12.0778 26.5366 13.0555 29.6107 13.292 30.6539zM16.7931 27.7456C16.6436 27.2699 16.446 25.7896 16.4758 25.2631 16.7191 25.4017 17.2416 26.1693 17.4514 26.3992 17.8225 26.8057 18.0895 27.0257 18.0373 27.8086L16.7931 27.7456zM26.2104 27.6392C26.4548 26.1785 26.4755 26.6133 27.2681 25.9522 28.1963 25.1777 27.495 25.1457 28.7671 24.6601 28.4833 25.2111 26.5935 27.4016 26.2106 27.6392H26.2104zM16.458 23.8167C16.0995 23.2561 15.7961 22.9296 16.2403 22.1892 16.4729 22.436 16.4595 22.576 16.7751 22.7985 17.118 23.0404 17.0767 22.9373 17.3088 23.3403 17.5564 23.7704 17.9138 24.2012 18.1902 24.6703 18.438 25.0909 19.1023 25.5315 19.1573 25.9221 19.2635 26.6761 19.3695 27.0391 19.5452 27.6924 19.1112 27.416 17.8143 25.7489 17.4096 25.1958 17.0618 24.7206 16.8015 24.3536 16.4578 23.8167H16.458zM28.8229 23.8454C28.7234 24.1155 28.5083 24.1887 28.2444 24.2807L28.7515 23.8217C29.2175 23.254 29.3543 22.1939 29.5093 21.3315L30.1416 18.7304C30.1013 19.5261 29.7948 20.6598 29.6489 21.479 29.4877 22.3854 29.3389 23.2733 28.8229 23.8454zM26.1313 17.5595C27.4851 17.3951 27.1013 18.0453 29.2562 16.9956 29.0447 17.7776 27.3544 18.7316 26.0938 18.7316 25.342 18.7316 24.2518 18.5761 23.9194 18.1173 24.1391 17.7706 24.7361 17.5433 25.2476 17.5433 25.9465 17.5433 26.0219 17.7249 26.5137 17.7997L26.1315 17.5595H26.1313zM17.9671 17.0573C18.7814 17.6845 19.83 17.6233 21.0341 17.5337L20.7609 17.6823 20.788 17.7748C21.716 17.516 22.5776 17.341 23.1951 18.0581 22.8985 18.721 20.9695 18.8161 20.1492 18.6109 18.8987 18.2983 18.4988 17.8223 17.8773 17.1467 17.8073 17.0798 17.7958 17.2311 17.765 16.941 18.0561 16.9768 17.8998 16.9822 17.9669 17.057L17.9671 17.0573zM22.4173 19.5929 22.5442 19.6557C22.4644 19.7472 22.6738 19.6983 22.3974 19.7437L22.1272 19.8691 25.0966 20.0451 24.4953 19.6265C24.7239 19.5901 24.9938 19.5602 25.2384 19.5275 25.6958 19.4663 25.5367 19.3609 25.6701 19.1984L27.3414 19.2014C27.4361 19.9582 27.4191 20.5391 27.2465 21.2548 27.1227 21.7686 26.7805 22.5894 26.723 22.9813L26.7514 23.0594 27.7995 20.768 27.3467 23.3839C27.7659 23.0489 28.1629 22.0857 28.3566 21.5032 28.216 22.8181 26.3873 25.6979 25.64 26.1978L25.8268 24.5213C25.6689 24.9963 25.4939 25.5076 25.2704 25.956 24.914 26.6711 24.9904 26.6542 24.0038 26.7394 24.0733 25.3008 23.9093 24.8333 23.5962 23.5897 23.475 23.1086 23.3486 22.6049 23.2967 22.0864 23.2234 21.3547 23.3996 21.0976 23.4272 20.5565 22.432 22.1984 24.1848 25.4052 23.3741 26.7245 22.6192 26.7321 22.4476 26.5243 22.0936 25.2916 21.8203 24.3409 21.9023 23.8941 21.8424 22.9209 21.4444 24.1341 21.7367 25.2156 21.9426 26.3818 20.8712 26.1065 20.2461 24.8128 19.7894 23.9365 18.768 21.9765 19.1138 21.1312 18.861 20.3622 18.7413 23.1152 19.2023 22.9677 19.7553 24.7759 19.8074 24.8277 19.8005 24.7945 19.8298 24.8716 19.8949 25.0424 19.8281 24.9187 19.8074 24.9542 19.608 24.8378 19.7762 24.9646 19.6265 24.7987L19.1302 24.1797 19.4892 25.1495C18.9348 24.9062 18.0996 23.477 17.8088 22.7336 17.2658 21.346 17.3144 20.8522 17.1281 19.3089 16.8986 19.9037 17.0769 21.462 17.1639 22.1407 17.2627 22.3706 17.2238 22.2447 17.1993 22.3762L17.0313 22.2666C16.4746 21.0597 16.5292 20.8772 16.4441 19.4122 16.3766 18.25 16.3744 17.2055 16.4155 16.0614 16.4208 16.0423 16.4434 15.9739 16.4458 15.9459 16.4475 15.9264 16.471 15.9334 16.4958 15.9217L16.5359 16.0767 17.0137 17.7644 16.8854 15.5565C17.2829 15.9487 17.0315 16.4228 17.3697 17.0751 17.7304 17.771 18.0373 17.5633 17.8744 18.4051 17.598 19.8343 17.8751 20.7233 18.1135 21.9803 18.2207 21.7796 17.8681 19.0897 18.4779 18.3119 19.6123 18.9045 19.6892 18.9934 21.2586 19.1386 21.2798 19.2412 20.8125 19.2701 21.5915 19.444 21.885 19.5094 22.1205 19.5783 22.418 19.5922L22.4173 19.5929zM26.5882 13.0842C26.5365 13.3284 26.6329 13.1896 26.4118 13.2907 26.4731 13.0734 26.4053 13.1679 26.5882 13.0842zM25.5595 13.0875C25.5665 13.1007 25.5992 13.1915 25.61 13.2115 25.703 13.3806 25.6987 13.33 25.7489 13.3705L25.2101 13.2943C25.2815 13.1268 25.1896 13.1825 25.4894 12.9891 25.5492 13.0505 25.505 12.9844 25.5595 13.0872V13.0875zM26.8797 12.879C26.9691 13.0263 27.0263 12.9863 26.8192 13.1755 26.8189 13.175 26.5745 13.1254 26.8797 12.879zM30.7906 14.5882C30.5238 12.8635 31.3929 12.6433 30.9148 11.0019 31.0261 11.0802 30.9828 11.0177 31.0778 11.1661 31.3503 11.5924 31.2376 12.3271 31.0987 12.7711 31.003 13.0764 30.7622 14.3802 30.7906 14.5882zM15.4181 11.9044C15.4178 11.3856 15.5806 10.8619 16.0223 10.7558 15.9156 11.1899 15.5171 11.2054 15.7166 12.066 15.7659 12.2784 15.9865 13.1524 16.049 13.2919 16.0668 12.6327 15.9363 12.3845 16.1646 11.8241 16.3667 12.0667 16.2547 12.0222 16.2547 12.0225 16.3273 12.3281 16.0418 14.204 15.8776 14.5115 15.7091 14.1713 15.7743 13.5735 15.6889 13.1599 15.6019 12.7384 15.4183 12.3723 15.4181 11.9044zM28.5883 11.7237C28.5691 11.9702 28.5503 11.8048 28.6734 11.8458L29.1094 10.9901C29.1993 11.8997 29.2096 13.4451 28.9868 14.3245 28.8344 14.9258 27.7526 15.8304 27.7262 16.5366L28.5616 15.7073C28.5422 16.0908 27.8896 16.9093 27.6471 17.0356 27.003 17.3711 26.3736 17.0643 25.7852 16.9375 25.6206 15.9508 24.9452 14.8493 25.0683 13.8015L26.1104 14.1019C26.4647 14.0883 26.2426 14.1332 26.2882 13.9786L25.7693 13.7304C26.2873 13.7281 26.8542 13.7686 27.1806 13.502 27.8519 12.9541 27.2595 13.2319 28.26 12.9367L27.6142 12.5843 28.558 12.5309C28.043 12.061 26.8583 11.9053 25.9337 12.1547 25.5913 12.2471 24.9604 12.5749 24.7481 12.5923 24.1444 12.6421 24.397 12.0352 23.9889 11.7938 23.6358 14.1198 24.8443 15.4693 25.0762 16.686L24.7294 16.7509 24.6626 16.3082C24.392 16.8683 24.3333 17.2205 23.4827 17.2695 22.5569 17.3229 22.6788 16.6895 22.2854 16.4025 22.2294 16.5397 22.2618 16.606 22.2435 16.6554 22.1573 16.8883 22.37 16.6959 22.1376 16.8004 21.6501 17.0194 22.1505 16.0214 22.1972 15.8419 22.3082 15.414 22.4572 14.6534 22.5221 14.2379L22.4565 14.1603 21.4449 16.7714C20.6147 17.1551 19.4969 17.329 18.7331 16.8599 18.2779 16.5801 17.4076 15.573 17.3495 14.894 17.71 15.2149 18.7992 16.0819 18.8679 16.458L18.9562 16.4461C18.7353 15.7095 17.7492 14.7569 17.3088 14.1137 16.9373 13.5709 16.9022 13.3157 16.9861 12.5156 17.0152 12.2396 17.1771 11.0266 17.2723 10.8711L18.0974 11.8952 18.1647 11.8225C17.7419 10.5643 17.1642 10.6577 17.4235 8.98337 17.5086 8.43498 17.5617 7.85789 17.6879 7.34832 17.883 6.56137 18.1904 6.62513 17.8792 5.97817 18.1861 6.06262 18.5444 6.2913 18.9506 6.41645 20.3956 6.86204 21.0937 7.04413 22.7687 7.05189 27.1191 7.07189 26.6617 6.4875 28.0101 6.36611L28.5809 8.27407 28.4448 7.09894C28.6945 7.47183 28.9238 8.81658 28.9834 9.36944 29.1144 10.5829 28.7049 10.8212 28.5878 11.7237H28.5883zM26.7586 3.96975C26.6065 3.42818 26.2539 2.44692 25.889 2.11967 26.3986 2.26553 26.9465 3.4016 26.8891 4.28829L26.7588 3.96999 26.7586 3.96975zM29.2478 2.39657C29.9734 3.35078 30.1138 6.33176 30.1138 7.78967H30.0301C30.0301 6.81734 29.8068 4.58543 29.5732 3.57805 29.4314 2.96708 29.2363 2.61042 29.1945 2.43609L28.6842 1.91335C28.9166 1.98534 29.1692 2.15472 29.2481 2.39657H29.2478zM24.7078 1.56869C25.5855 2.18742 26.2438 3.15999 26.357 4.53296 26.3257 4.49273 26.3092 4.48427 26.2685 4.40851L26.2289 4.3177C26.2034 4.25395 26.1801 4.15702 26.1565 4.08479 25.8496 3.14964 25.3031 2.29917 24.6501 1.63762L24.7078 1.56893V1.56869zM27.2948 2.89603C26.3618 1.77925 26.4916 2.14155 25.7242 1.4233 26.381 1.56775 27.1479 2.31023 27.2948 2.89603zM24.839 5.75749 24.7347 5.88453 24.7087 5.71279 24.4441 4.80234 24.1081 6.15673 23.8692 5.72197 23.4974 6.23413 23.1037 4.80775 22.6872 6.13155C22.5779 4.98984 22.5 4.7814 21.8833 4.06245 21.8967 4.52544 22.4334 5.0623 21.8316 6.24072L21.5999 5.51329 21.1457 6.14073C21.0666 6.26471 21.2154 6.20049 20.9918 6.28659L20.9421 6.13014 20.6359 5.26321 20.3895 5.54646C20.3734 4.62307 19.7483 3.70673 19.2152 3.45336 19.4986 3.95728 19.801 4.3017 19.7224 5.13358L19.5882 4.98584 19.414 5.63351 18.6846 4.94373 18.6288 5.67021C17.8345 5.56693 17.6013 4.57366 17.2067 4.06762 17.1966 4.67694 17.4007 4.81222 17.4958 5.2084 17.5607 5.47847 17.3341 5.01572 17.3889 5.5594 17.4148 5.81725 17.5415 5.88289 17.4922 6.14167 17.4607 6.30706 17.1961 6.81875 17.1072 7.19022 17.019 7.55888 17.0147 8.08398 16.8539 8.35923L16.7688 7.55629 16.609 8.44322 16.6083 4.83927 17.1382 5.85089C17.0248 4.64871 16.6306 4.16455 17.2687 2.86191 17.6124 2.89509 18.3784 3.56017 18.4918 3.99634L18.6242 3.9761C18.3764 3.07341 17.7069 2.69841 17.5944 2.39586 18.0056 2.35963 17.8676 2.41633 18.1491 2.2987 18.4195 2.18554 19.2167 2.39139 19.4967 2.47891l-1.1082-.69872L19.27 1.94087 18.8641 1.5694C19.8377 1.66868 20.5328 2.76358 21.0108 3.39454 20.7736 2.29682 20.1093 2.09497 19.7865 1.45624L20.8299 1.64209 20.1869 1.21768 20.8368 1.13934C20.9197 1.08547 20.9414 1.07959 21.0349 1.02877 21.2307.922668 20.8243.981012 21.267.949487L23.0463 1.15957 22.4341.857736C23.6565.928549 26.5567 3.85377 25.672 5.22886 25.5103 4.82186 25.5127 4.39651 25.2776 3.88765 24.8279 2.91461 23.5801 1.77149 22.6468 1.49858 23.1753 2.08814 23.6553 2.18931 24.2956 3.13011 24.9065 4.02739 24.9053 4.60072 24.8399 5.75796L24.839 5.75749zM7.06766 25.2808C6.2219 25.6365 4.8409 26.4568 4.14679 26.9285 3.30319 27.5018 2.53674 28.1921 2.10028 29.1896 1.86667 29.7232 1.71598 30.3593 1.72199 31.018 1.7292 31.8099 1.47708 31.996 1.27615 32.7058.870937 34.1366 1.35162 35.0563 1.06561 36.521.863246 37.558.466923 38.9428.151354 39.9464-.114463 40.7914 900511e-9 42.6961.273448 43.6317.919005 45.8486 2.07769 47.6876 3.75744 48.7373 6.19835 50.2628 7.87857 50.0659 11.0927 49.864 16.1701 49.5452 21.7338 48.9919 26.655 47.9539 27.8956 47.6923 28.9882 48.2504 30.2426 48.4301 31.5664 48.6197 33.0411 48.6451 34.3945 48.568 36.9782 48.4209 39.6791 48.1332 41.9015 47.3119 46.3503 45.6679 46.1169 42.6498 45.9116 38.5951 45.8431 37.2447 45.8374 35.7802 45.809 34.45 45.7398 31.1919 46.0179 29.7246 43.9913 27.6995 43.104 26.8128 42.4046 26.6373 41.1358 26.1679 40.023 25.7562 39.0674 25.3471 38.0217 24.9676 35.65 24.1068 33.8441 23.5794 31.2225 23.1072 30.326 22.9458 30.5707 22.6216 30.2544 21.8584 30.0479 21.3606 30.3152 20.6516 30.4397 20.117 30.8266 18.4585 30.7735 17.9783 30.7574 16.2675 30.7547 15.9988 31.265 15.3987 31.3407 14.7357 31.4251 13.9961 31.384 13.5333 31.5871 12.8473 31.7673 12.2377 31.8163 11.5548 31.5801 10.9699 31.2753 10.2157 31.0655 10.2867 30.5048 9.89265 30.4411 9.28333 30.5743 8.48651 30.5728 7.82166 30.5714 7.12717 30.5363 6.44186 30.4721 5.78902 30.2882 3.91611 30.2039 1.91852 28.5438 1.27932 27.9903 1.06618 27.5068.75681 27.06.593774 23.9437-.543236 18.3664-.0386038 16.7027 2.06156 15.3299 3.79495 16.3756 7.6351 15.9524 9.8336 15.8718 10.0272 14.1243 10.3796 14.7838 12.8023 15.1412 14.1153 14.8261 15.2218 15.7978 16.0466 15.8442 17.2222 15.7808 18.4347 15.8603 19.6853 15.9651 21.3324 15.6262 20.221 15.1527 22.6978 14.2921 22.6978 13.6064 22.839 13.0776 23.2467 12.0067 24.0725 12.2667 23.5001 11.0482 23.8621 10.4041 24.0536 7.4349 25.1373 7.06766 25.2812V25.2808z" fill="#363a3f"/><path fill-rule="evenodd" clip-rule="evenodd" d="M41.5878 42.4942 41.6986 42.5378C41.9563 42.6773 41.6131 42.3785 41.7647 42.614 41.7061 42.6368 41.8587 42.7116 41.6157 42.6293 41.3823 42.5502 41.6251 42.6533 41.5068 42.5335 39.3301 41.9673 38.6042 41.9546 36.3496 42.5338 34.6549 42.969 33.323 43.4299 31.4678 43.6301 29.6654 43.8246 27.7355 43.7204 26.0151 43.3381 25.1196 43.1391 22.1163 42.1992 21.7351 41.6675 23.4067 42.0338 24.6197 42.4884 26.5343 42.7062 28.4335 42.9222 30.1896 42.8871 32.0479 42.6363 34.94 42.246 39.1753 40.4999 41.5881 42.4942H41.5878zM42.317 39.0644 42.3906 39.0108C41.4847 37.3576 38.8648 36.9002 36.4462 37.2435 34.1803 37.5651 32.0311 38.1577 29.8226 38.6339 27.4319 39.1493 25.148 39.4305 22.5367 39.342 20.8132 39.2837 16.4053 38.8703 15.1572 39.5965 15.4673 39.8318 18.7938 41.0323 19.5634 41.3723 20.9749 41.9957 22.4266 42.6187 23.8537 43.269 26.8607 44.6391 30.2127 45.5089 34.194 45.3489 37.3446 45.2223 42.6061 44.6205 43.63 42.3769 44.0376 41.4838 41.6284 39.1926 41.1196 38.8505 39.5875 37.8203 38.5153 37.6011 36.2876 37.5171 37.0557 37.1755 38.9888 37.5074 39.785 37.7399 40.8132 38.0401 41.6481 38.5402 42.3175 39.0644H42.317z" fill="#fefefe"/><path fill-rule="evenodd" clip-rule="evenodd" d="M17.8717 47.1627C16.1035 47.1569 14.8261 47.1105 13.1894 46.7292 12.3465 46.5327 9.85299 45.7491 9.50161 45.2654 10.5764 45.371 11.9394 45.7382 13.1298 45.9142 14.4154 46.1043 15.6284 46.1852 16.9652 46.2591 19.2268 46.3798 20.6573 46.1916 23.0023 46.0462 21.816 46.6461 19.358 47.135 17.8715 47.1625L17.8717 47.1627zM3.44164 45.287C3.37699 43.4193 5.06178 41.7452 6.12553 41.061 8.52342 39.5187 10.1027 39.8532 11.3897 39.4192 10.4272 38.8924 7.27292 39.9675 6.49446 40.4145 4.77866 41.3996 2.7348 43.7955 3.26235 45.9763 3.49908 46.9545 3.76274 47.1983 4.73684 47.4834 5.61961 47.7419 6.41106 47.8208 7.41424 47.8153 8.52582 47.8095 9.08846 47.493 9.95393 47.406 9.16994 48.0675 7.36113 48.1624 6.1462 48.3579 7.71131 49.1514 14.1775 48.5432 16.2314 48.3339 17.6665 48.1878 24.7159 47.1533 25.4783 46.6976 25.0116 46.1991 23.6039 45.3251 23.0244 44.912 21.8604 44.0822 19.0597 42.1482 17.8626 41.6713 16.8383 41.2636 15.8639 40.8947 14.8317 40.5009 13.0613 39.8255 9.19854 40.1703 7.40607 40.8957 6.42332 41.2932 5.42037 41.8732 4.84908 42.5305 3.8906 43.6331 3.98001 43.8105 3.44188 45.2875L3.44164 45.287z" fill="#fefefe"/><path fill-rule="evenodd" clip-rule="evenodd" d="M18.1307 12.5272C19.4982 11.3767 21.6736 12.5472 21.893 12.5864 22.4484 12.6855 22.3333 12.1152 22.6472 11.8458 23.3749 13.0873 20.9643 14.4838 20.0106 14.1599L20.9766 13.7359C20.4663 13.718 19.8494 13.7773 19.503 13.5016 18.8315 12.9669 19.4208 13.2219 18.4338 12.9365L19.1067 12.5824 18.1302 12.5274 18.1307 12.5272zM22.9873 9.87673C23.5434 9.84261 24.0936 9.87602 24.6427 9.83391 25.1148 9.79768 25.7538 9.65605 26.1554 9.66264 25.5767 10.1141 24.1794 10.2033 23.3463 10.0332 23.0911 9.98118 23.0889 9.96565 22.9873 9.87673zM19.7328 8.64326C20.3077 8.68843 20.9167 8.84841 21.5563 8.90769 22.9094 9.03261 24.0498 9.03497 25.4027 8.87475 25.8346 8.8237 26.7919 8.60397 27.0904 8.62326 27.026 8.63479 26.1542 8.94863 25.4366 9.08131 23.8669 9.37139 20.7829 9.34763 19.7328 8.64349V8.64326zM18.1641 11.8219C18.2047 11.8644 18.2105 11.8616 18.2564 11.9369 18.3165 12.0355 18.2314 11.788 18.2787 12.0254 18.0764 12.0014 18.1879 12.0526 18.0968 11.8945L17.2717 10.8705C17.1765 11.026 17.0145 12.239 16.9855 12.5149 16.9016 13.3153 16.9367 13.5703 17.3082 14.113 17.7485 14.7562 18.7347 15.7086 18.9555 16.4454 19.0281 16.5626 19.0202 16.2624 19.0058 16.612L18.8673 16.4574C18.7986 16.0812 17.7094 15.2143 17.3489 14.8934 17.407 15.5724 18.2773 16.5795 18.7325 16.8592 19.4963 17.3286 20.6141 17.1545 21.4443 16.7708L22.4559 14.1596C22.5258 13.9307 22.4624 14.0166 22.6623 13.9159 22.6431 14.0037 22.6481 14.0295 22.6078 14.1203 22.5633 14.2206 22.5609 14.1883 22.5215 14.2373 22.4566 14.6527 22.3076 15.4136 22.1965 15.8413 22.1499 16.0208 21.6495 17.0187 22.1369 16.7997 22.3693 16.6953 22.1564 16.8875 22.2429 16.6548 22.2612 16.6054 22.2287 16.5388 22.2847 16.4019 22.6782 16.6887 22.5563 17.322 23.4821 17.2688 24.3329 17.2199 24.3916 16.8677 24.662 16.3076L24.7288 16.7503 25.0756 16.6854C24.8437 15.4686 23.6352 14.1192 23.9883 11.7932 24.3964 12.0345 24.1438 12.6415 24.7475 12.5916 24.9598 12.574 25.5909 12.2465 25.9331 12.154 26.8575 11.9044 28.0424 12.0604 28.5574 12.5302L27.6136 12.5836 28.2594 12.936C27.2589 13.2313 27.8515 12.9537 27.18 13.5014 26.8536 13.7677 26.2867 13.7275 25.7687 13.7298L26.2876 13.978 26.7402 14.1523C26.6123 14.2253 26.4612 14.2107 26.2593 14.1606 26.1107 14.1236 26.1377 14.1138 26.1098 14.1011L25.0677 13.8006C24.9446 14.8485 25.62 15.95 25.7846 16.9366 26.373 17.0634 27.0024 17.3702 27.6465 17.0347 27.889 16.9084 28.5413 16.0899 28.561 15.7065L27.7256 16.5358C27.752 15.8295 28.8338 14.9249 28.9862 14.3236 29.209 13.4442 29.1984 11.8988 29.1088 10.9893L28.6728 11.8449C28.5788 12.0406 28.5721 12.1667 28.4002 12.2592 28.4115 12.1505 28.419 12.0863 28.4517 11.9745 28.5307 11.7054 28.5569 11.7572 28.5875 11.7228 28.7043 10.8206 29.1138 10.582 28.9831 9.36856 28.9235 8.8157 28.6942 7.47119 28.4445 7.09807L28.5805 8.2732 28.0097 6.36524C26.6614 6.48687 27.1187 7.07102 22.7683 7.05102 21.0931 7.04326 20.3952 6.86117 18.9502 6.41558 18.5443 6.29043 18.186 6.06175 17.8788 5.97729 18.19 6.62426 17.8827 6.5605 17.6875 7.34745 17.5611 7.85726 17.508 8.43435 17.4231 8.9825 17.1638 10.6566 17.7416 10.5634 18.1643 11.8216L18.1641 11.8219z" fill="#fdfdfd"/><path fill-rule="evenodd" clip-rule="evenodd" d="M21.1594 24.921 21.0989 25.1033C20.9712 24.9525 21.0176 25.0694 21.0097 24.857 20.9905 23.7814 19.1422 21.8541 19.9849 20.7656 19.9986 21.7207 20.2754 22.1599 20.6379 22.8733 21.053 23.6901 21.1003 23.9063 21.1597 24.921H21.1594zM24.6208 23.4842C24.541 23.7287 24.4403 24.3992 24.3528 24.5714 24.0786 23.3454 24.6723 22.4954 24.8677 21.3589 24.9611 20.8145 24.8376 20.6388 24.8246 20.2007 25.6805 20.9055 24.8484 22.7876 24.6208 23.4842zM16.5343 16.0771 16.4139 16.0618C16.373 17.2056 16.3749 18.2502 16.4425 19.4126 16.5276 20.8773 16.473 21.0599 17.0296 22.267 17.2 22.2755 17.1517 22.3133 17.1623 22.1411 17.0753 21.4624 16.8967 19.904 17.1265 19.3093 17.3128 20.8526 17.264 21.3464 17.8071 22.734 18.0982 23.4776 18.9331 24.9066 19.4876 25.1499L19.1285 24.1801 19.6248 24.7991 19.7537 24.7763C19.2006 22.9681 18.7394 23.1156 18.8594 20.3626 19.1122 21.1314 18.7666 21.9767 19.7878 23.9369 20.2444 24.813 20.8698 26.1069 21.941 26.3822 21.735 25.216 21.4428 24.1342 21.8408 22.9212 21.9006 23.8945 21.8187 24.3413 22.0919 25.292 22.446 26.5245 22.6176 26.7325 23.3725 26.7249 24.1832 25.4056 22.4303 22.1988 23.4256 20.5569 23.398 21.0978 23.2218 21.3551 23.2951 22.0868 23.347 22.6051 23.4734 23.109 23.5946 23.5901 23.9077 24.8337 24.0716 25.3011 24.0022 26.7398 24.9888 26.6546 24.9124 26.6715 25.2688 25.9563 25.4923 25.5079 25.6675 24.9965 25.8252 24.5217L25.6384 26.1982C26.3859 25.698 28.2144 22.8184 28.355 21.5036 28.1613 22.0863 27.7642 23.0495 27.3451 23.3842L27.7979 20.7684 26.7498 23.0598 26.5762 23.3864C26.4847 23.1885 26.6382 23.0478 26.7216 22.9819 26.7791 22.59 27.1213 21.7692 27.2451 21.2554 27.4177 20.5397 27.4347 19.9589 27.34 19.202L25.6687 19.199C25.5353 19.3615 25.6944 19.4672 25.2371 19.5281 24.9926 19.5608 24.7227 19.5907 24.4939 19.6271L25.0953 20.0457 22.1258 19.8697 22.396 19.7443 22.4157 19.5933C22.1181 19.5794 21.8826 19.5105 21.5892 19.4451 20.81 19.2714 21.2774 19.2423 21.2563 19.1397 19.6869 18.9945 19.6099 18.9056 18.4755 18.313 17.866 19.0907 18.2184 21.7807 18.1112 21.9814 17.8728 20.7242 17.5956 19.8351 17.872 18.4061 18.035 17.5644 17.7281 17.7724 17.3673 17.0762 17.0292 16.4238 17.2806 15.9498 16.883 15.5576L17.0114 17.7655 16.5336 16.0778 16.5343 16.0771z" fill="#fcfcfc"/><path fill-rule="evenodd" clip-rule="evenodd" d="M23.0697 4.18983C23.1344 4.28276 23.0969 4.05597 23.1591 4.36087 23.2014 4.5686 23.1406 4.48461 23.1312 4.51143L22.9894 4.32605C22.9173 4.15243 22.6479 3.76707 22.4888 3.54169 22.2917 3.26244 22.0687 3.04059 21.9197 2.77992 22.3708 2.92813 22.9017 3.65179 23.0699 4.18983H23.0697zM19.9388 2.86014C20.181 2.95825 20.623 3.43512 20.7898 3.72472 20.9792 4.05362 21.2039 4.54272 21.1825 5.0283 21.0768 4.87467 21.0049 4.62177 20.9131 4.42509 20.5144 3.56992 19.9719 3.09893 19.9241 2.96178 19.7549 2.86626 19.7059 2.84862 19.6146 2.66888 19.7467 2.6997 19.6946 2.66794 19.8035 2.73052 19.9054 2.7891 19.9169 2.83685 19.9383 2.86014H19.9388zm3.7363 1.21794C23.3341 3.50687 22.9906 2.97048 22.5883 2.55266 21.9336 1.87323 21.3051 1.57751 21.1309 1.36954 21.8401 1.39871 22.614 1.96475 22.9144 2.29623 23.1509 2.55689 23.8943 3.66214 23.6751 4.07808zM21.265.948188 21.2729 1.12557 20.8345 1.13804 20.1846 1.21638 20.8276 1.64079 19.7842 1.45494C20.107 2.09367 20.7716 2.29552 21.0085 3.39324 20.5305 2.76228 19.8354 1.66738 18.8618 1.5681L19.2677 1.93957 18.3862 1.77889 19.4944 2.47761C19.2144 2.3901 18.4174 2.18424 18.1468 2.2974 17.8656 2.41503 18.0035 2.35834 17.5921 2.39457 17.7046 2.69711 18.3741 3.07211 18.6219 3.97481 18.6263 3.97928 18.6859 3.98469 18.7025 4.11008 18.7349 4.3531 18.6731 4.23477 18.658 4.26559L18.4895 3.99504C18.3761 3.55887 17.6101 2.89379 17.2664 2.86061 16.6281 4.16325 17.0225 4.64741 17.1359 5.84959L16.606 4.83797 16.6067 8.44192 16.7665 7.55499 16.8516 8.35793C17.0121 8.08268 17.0167 7.55781 17.1049 7.18892 17.1938 6.81745 17.4584 6.30576 17.4899 6.14037 17.5392 5.88159 17.4125 5.81595 17.3866 5.5581 17.3318 5.01442 17.5584 5.47741 17.4935 5.2071 17.3981 4.81092 17.1943 4.67588 17.2044 4.06632 17.599 4.57237 17.8322 5.56563 18.6265 5.66891L18.6823 4.94243 19.4117 5.63221 19.586 4.98454 19.7201 5.13228C19.7987 4.3004 19.4963 3.95598 19.2129 3.45206 19.746 3.70543 20.3711 4.62177 20.3872 5.54516L20.6336 5.26191 20.9398 6.12884C21.0621 6.18601 20.9198 6.17401 21.1431 6.13967L21.5974 5.51223 21.8291 6.23965C22.4309 5.06123 21.8942 4.52437 21.8807 4.06138 22.4974 4.78033 22.5756 4.98877 22.6847 6.13049L23.1012 4.80668 23.4949 6.23306 23.8667 5.7209 24.1056 6.15566 24.4416 4.80127 24.7062 5.71173 24.8364 5.75643C24.9018 4.59918 24.9028 4.02609 24.2921 3.12858 23.6518 2.18777 23.1716 2.08661 22.6433 1.49705 23.5766 1.76972 24.8242 2.91308 25.2741 3.88611 25.5094 4.39474 25.5068 4.82033 25.6685 5.22733 26.5532 3.85223 23.6532.927014 22.4306.856201L23.0428 1.15804 21.2635.947953 21.265.948188z" fill="#f9f9f9"/><path fill-rule="evenodd" clip-rule="evenodd" d="M30.9741 31.777 31.0938 31.4491C31.1674 31.6794 31.0785 31.2848 31.1164 31.5455 31.1236 31.5956 31.1157 31.7377 31.1157 31.7923L31.6356 35.6567C31.7973 34.8958 31.7637 33.6619 31.8247 32.8507 31.8973 31.8881 32.0759 31.0929 32.185 30.1902 31.4906 30.2158 30.5591 30.3869 29.8227 30.4511 29.3538 30.4918 27.5579 30.3815 27.4471 30.7336 27.1938 31.5385 26.9926 34.5975 26.96 35.5807L31.0203 35.7096 30.9746 31.7768 30.9741 31.777z" fill="#fdfdfd"/><path fill-rule="evenodd" clip-rule="evenodd" d="M14.6624 31.7923C14.6624 31.7321 14.6545 31.6027 14.6614 31.5456 14.7006 31.2251 14.6069 31.7516 14.684 31.4491L14.8037 31.7771 14.7881 35.7155 16.8091 35.5647C17.0187 33.5375 16.8935 31.8467 16.6212 29.9326L13.5688 29.9474 13.6407 29.9404 14.1627 35.6475 14.6619 31.7926 14.6624 31.7923z" fill="#fdfdfd"/><path fill-rule="evenodd" clip-rule="evenodd" d="M38.9564 29.9638 39.2236 29.6932C39.2263 29.6801 39.2349 29.6756 39.2407 29.6669L39.3171 29.4566 39.2763 28.7056 37.6095 29.5881C37.5422 29.6751 37.5946 29.6311 37.5095 29.7055L37.1976 29.8431C37.306 29.654 37.3665 29.6175 37.5588 29.542L39.421 28.2438 39.3808 28.1939 39.1804 28.1615 39.0806 27.124 36.7424 26.5664C36.3785 27.611 35.9432 28.4958 35.618 29.6314 35.1845 31.1457 35.987 30.1257 35.7668 33.2073 35.8923 33.1346 37.0353 31.7257 37.2762 31.4897 37.8131 30.9636 38.3764 30.3647 38.9561 29.9638H38.9564z" fill="#fdfdfd"/><path fill-rule="evenodd" clip-rule="evenodd" d="M6.39707 28.1941 6.35693 28.2439 8.2227 29.5407C8.40368 29.6219 8.47674 29.66 8.58273 29.8468 8.35898 29.7882 8.30466 29.7658 8.16214 29.5908L6.53719 28.6676 6.461 29.4567 6.53719 29.667C6.63621 29.8183 6.67539 29.7609 6.82151 29.9639 8.09652 30.836 9.86712 33.1244 10.0108 33.2074 9.79093 30.131 10.5881 31.1499 10.1599 29.6317 9.83924 28.495 9.38908 27.6012 9.04083 26.5894L6.69485 27.1152C6.62708 27.804 6.69365 28.1508 6.39683 28.1941H6.39707z" fill="#fdfdfd"/><path fill-rule="evenodd" clip-rule="evenodd" d="M41.5068 42.5338 41.5878 42.4943C39.1752 40.5 34.9397 42.2461 32.0477 42.6364 30.1894 42.8872 28.4334 42.9225 26.534 42.7063 24.6194 42.4884 23.4064 42.0339 21.7349 41.6676 22.116 42.1995 25.1194 43.1392 26.0149 43.3382 27.7352 43.7205 29.6652 43.8249 31.4675 43.6301 33.3227 43.4299 34.6549 42.9691 36.3493 42.5338 38.604 41.9546 39.3298 41.9673 41.5066 42.5336L41.5068 42.5338z" fill="#3f3f3f"/><path fill-rule="evenodd" clip-rule="evenodd" d="M19.2649 34.7037 19.2419 35.4059 21.5955 35.4073 21.5965 32.4922 21.4999 30.3339 19.082 30.113 19.1525 30.1234 19.2649 34.7037z" fill="#fefefe"/><path fill-rule="evenodd" clip-rule="evenodd" d="M24.972 30.9493 25.0208 30.5458C24.8011 30.5463 24.7514 30.5828 24.5976 30.4755L23.2207 30.4277C23.007 30.9973 22.3963 34.8956 22.541 35.4543L24.5584 35.51 24.9723 30.9493H24.972z" fill="#fdfdfd"/><path fill-rule="evenodd" clip-rule="evenodd" d="M36.0589 34.8225 36.1286 34.9032C36.393 34.8503 37.1602 34.4875 37.5459 34.3607 38.0506 34.1948 38.6318 34.0252 39.2024 34.0452 39.2158 34.0365 39.2343 34.0064 39.2425 34.0191 39.2509 34.0323 39.274 33.9993 39.2862 33.9951 39.3711 33.9657 39.2874 33.984 39.3918 33.9598L40.1717 33.9271C40.0241 34.0464 39.71 34.1012 39.4636 34.1226 39.2903 34.1948 39.1536 34.4237 39.0074 34.6082 38.6436 35.0672 38.6681 34.7089 38.353 34.9218L39.6153 35.0244C39.3401 35.1702 38.8012 35.0571 38.54 35.2154 38.2619 35.3838 38.6623 35.4027 37.6993 35.6384L37.6897 35.341C36.9689 35.4932 35.6011 35.9501 35.3086 36.4776L37.4565 36.1894C37.6481 35.6788 37.4712 35.6744 38.2052 35.6339L38.0283 36.1774 39.9606 36.338 40.0904 35.6953 39.3165 35.641 38.4554 35.6189C38.7534 35.4996 39.2146 35.4506 39.6208 35.4556L40.7821 35.4596 40.7396 35.3871C39.9849 35.4753 40.1587 35.2808 40.1359 35.1587 40.2716 35.0526 39.8638 35.0342 40.7504 35.0954 41.1402 35.0827 40.8677 35.1556 40.9386 34.9411 40.6771 35.0467 40.5512 34.9818 40.2315 34.9293 40.3022 34.7039 40.612 34.3779 40.7636 34.1927 41.078 33.8095 41.0737 33.8156 41.7185 33.8702L41.7493 33.7869C40.7408 33.7377 41.3957 33.6733 41.4702 32.5915L40.1755 32.7157C39.7619 33.4933 40.002 33.8782 38.8652 33.9563L39.5249 32.9261 39.1238 32.9049C39.691 32.679 39.6669 32.6788 39.6482 32.0024 38.7258 32.3118 36.6596 34.2409 36.0592 34.8227L36.0589 34.8225z" fill="#f9f9f9"/><path fill-rule="evenodd" clip-rule="evenodd" d="M4.02881 33.7867 4.06005 33.8704C4.70152 33.8168 4.702 33.8095 5.01469 34.1922 5.16995 34.3821 5.4723 34.6971 5.54584 34.9288 5.26993 34.9733 5.16923 35.0067 4.87505 34.9797L5.02767 35.0952C5.0791 35.0916 5.3329 35.062 5.36391 35.0625 5.80926 35.0686 5.51604 35.0601 5.64174 35.1585 5.62203 35.265 5.76119 35.4713 5.03848 35.3869L4.99594 35.4593 6.15727 35.4553C6.56345 35.4504 7.02467 35.4993 7.32173 35.5956L6.4613 35.6407 5.70038 35.693 5.82007 36.3583 7.72935 36.1552 7.56976 35.6346C8.30665 35.6741 8.13 35.6786 8.32059 36.1959L10.47 36.4728C10.1772 35.9501 8.80896 35.493 8.13937 35.3358L8.11798 35.6341C7.25035 35.4968 7.44863 35.3427 7.23809 35.2151 6.98092 35.0594 6.46876 35.1432 6.15896 35.0528L7.42652 34.9382C7.11191 34.7098 7.13426 35.0648 6.7699 34.6089 6.62233 34.4242 6.4887 34.1958 6.31518 34.1219 6.05849 34.0993 5.77152 34.044 5.60785 33.9269L6.53509 34.0196C6.54326 34.0071 6.56177 34.037 6.57499 34.0457 7.13522 34.0247 7.74257 34.2012 8.23575 34.3614 8.63231 34.4903 9.37352 34.8481 9.64967 34.9034L9.71937 34.8227C9.11612 34.2381 7.05278 32.3118 6.13035 32.0024L6.17506 32.6758 6.93045 32.9936 6.2772 32.8654 6.92204 33.9516C5.56339 33.8641 6.0633 33.215 5.56916 32.7513L4.31145 32.5678C4.38884 33.6796 5.03127 33.738 4.02905 33.7869L4.02881 33.7867z" fill="#f9f9f9"/><path fill-rule="evenodd" clip-rule="evenodd" d="M17.8718 47.1625C19.3584 47.135 21.8161 46.6461 23.0027 46.0462 20.6574 46.1916 19.2271 46.3798 16.9655 46.2591 15.6287 46.185 14.4157 46.1041 13.1301 45.9142 11.9397 45.7383 10.5768 45.371 9.50195 45.2654 9.85333 45.7491 12.3469 46.5327 13.1898 46.7292 14.8265 47.1105 16.1041 47.1569 17.8721 47.1628L17.8718 47.1625z" fill="#3f3f3f"/><path fill-rule="evenodd" clip-rule="evenodd" d="M28.4039 26.6205 27.9165 28.311C28.5957 28.3532 31.8951 28.1174 32.2414 27.8648L32.9245 25.9248 28.4039 26.6207V26.6205z" fill="#fdfdfd"/><path fill-rule="evenodd" clip-rule="evenodd" d="M17.459 34.2638 17.4069 35.4731 18.5939 35.402C18.967 35.0978 18.5689 30.8133 18.5074 30.0993L17.2314 29.9734 17.459 34.2636V34.2638z" fill="#fdfdfd"/><path fill-rule="evenodd" clip-rule="evenodd" d="M4.39131 40.7976C4.79388 40.6403 5.42406 39.7519 6.91634 39.1732 8.30863 38.6335 8.74269 38.6878 10.2838 38.429L10.2138 37.9818C6.23232 37.3337 4.08007 39.6766 3.84766 39.7804L4.39107 40.7976H4.39131z" fill="#fcfcfc"/><path fill-rule="evenodd" clip-rule="evenodd" d="M4.99597 35.4594 5.03851 35.3869 5.0277 35.0952 4.87508 34.9797C4.86282 34.8823 4.18025 34.0142 4.05984 33.8705L4.0286 33.7867 3.7087 32.6358 3.70149 32.5601 2.69687 32.7104C2.47791 34.073 2.13639 34.4887 2.25319 36.0718L4.99597 35.4594z" fill="#fdfdfd"/><path fill-rule="evenodd" clip-rule="evenodd" d="M41.7494 33.7867 41.7187 33.87C41.5463 34.0777 41.4567 34.2297 41.3271 34.389 41.2476 34.4868 41.1964 34.5428 41.1072 34.6513 40.9683 34.8202 40.9835 34.7764 40.9387 34.9407 40.8678 35.1554 41.1404 35.0823 40.7506 35.095L40.7397 35.3867 40.7823 35.4592 43.5277 36.0607C43.6409 34.4998 43.3148 34.0683 43.0751 32.7344L42.0765 32.5601 42.0693 32.6356 41.7494 33.7865V33.7867z" fill="#fdfdfd"/><path fill-rule="evenodd" clip-rule="evenodd" d="M5.48322 31.2283 5.6493 30.9575 5.96463 28.4677 4.82228 28.2529 4.42332 30.6862 3.89408 30.5067 4.21927 28.3252C3.13845 28.4167 2.58062 29.1027 2.6121 30.2188L5.48322 31.2285V31.2283z" fill="#fcfcfc"/><path fill-rule="evenodd" clip-rule="evenodd" d="M40.1292 30.9575 40.2953 31.2283 42.8273 30.3238C42.9554 30.2252 42.7081 30.3242 42.9501 30.2417 43.0693 30.201 43.045 30.2184 43.1834 30.2052 43.107 29.0802 42.7145 28.4236 41.5905 28.3205L41.8887 30.4821 41.3629 30.6969 40.9848 28.2937 39.8228 28.4494 40.1292 30.9575z" fill="#fcfcfc"/><path fill-rule="evenodd" clip-rule="evenodd" d="M21.1743 13.0173C21.1767 12.9989 21.1885 12.9949 21.1967 12.9846 21.3185 13.0571 21.4113 13.082 21.4843 13.2855L20.9815 13.3629 21.1743 13.0173zM20.6941 13.2777C20.7177 13.0952 20.7321 13.1274 20.8828 13.0818 20.8248 13.249 20.8609 13.202 20.6941 13.2777zM19.8668 13.174C19.8053 13.097 19.6945 13.1086 19.8063 12.8903 19.9274 12.9634 19.8798 12.7931 19.9228 13.0307 19.9841 13.3681 19.9464 13.0354 19.8668 13.174zM18.1309 12.5273 19.1074 12.5823 18.4344 12.9364C19.4215 13.222 18.8322 12.9667 19.5037 13.5015 19.85 13.7772 20.467 13.7179 20.9772 13.7358L20.0113 14.1597C20.965 14.4837 23.3756 13.0872 22.6478 11.8457 22.334 12.1151 22.4491 12.6853 21.8936 12.5863 21.6742 12.547 19.4989 11.3768 18.1313 12.527L18.1309 12.5273z" fill="#3f3f3f"/><path fill-rule="evenodd" clip-rule="evenodd" d="M25.1909 35.5057 26.3715 35.5643 26.8697 30.5799 25.842 30.5352 25.1909 35.5057z" fill="#fdfdfd"/><path fill-rule="evenodd" clip-rule="evenodd" d="M27.5825 30.0081 32.3322 29.6672C32.2903 29.5023 32.5891 28.6109 32.6516 28.3853 30.2332 28.7932 30.2236 28.7036 28.094 28.8518 27.7142 28.8781 27.6863 29.0619 27.5825 30.0083V30.0081z" fill="#fdfdfd"/><path fill-rule="evenodd" clip-rule="evenodd" d="M19.5445 27.6919C19.3688 27.0384 19.2628 26.6756 19.1565 25.9216 19.1015 25.5311 18.4372 25.0902 18.1894 24.6698 17.9128 24.2007 17.5556 23.7699 17.3081 23.3398 17.0761 22.9368 17.1172 23.0399 16.7743 22.798 16.4587 22.5755 16.4722 22.4355 16.2395 22.1887 15.7954 22.9291 16.0984 23.2556 16.4573 23.8162 16.801 24.3533 17.0612 24.7201 17.409 25.1953 17.8138 25.7484 19.1106 27.4155 19.5447 27.6919H19.5445z" fill="#fbfbfb"/><path fill-rule="evenodd" clip-rule="evenodd" d="M26.8706 37.2716 31.2136 37.3956 31.1047 36.2419 26.9136 36.1113 26.8706 37.2716z" fill="#fcfcfc"/><path fill-rule="evenodd" clip-rule="evenodd" d="M12.8481 25.9265C12.9001 26.1907 13.0931 26.5893 13.201 26.8923 13.5252 27.803 12.9844 27.6366 15.4539 27.6439L16.1697 27.6432 15.8517 25.8433C15.3621 26.7485 14.8235 26.0204 12.8484 25.9265H12.8481z" fill="#fdfdfd"/><path fill-rule="evenodd" clip-rule="evenodd" d="M5.64947 30.9575 5.4834 31.2283C5.55814 31.3043 7.39916 32.175 7.7938 32.4229 8.61649 32.94 9.1015 33.3301 9.81099 33.8392 9.39039 32.8695 7.36888 30.4366 6.76129 30.0139L6.4563 29.7631C6.44621 29.5869 6.43251 29.7165 6.53826 29.6671L6.46207 29.4568 6.16909 31.4024 5.67351 31.2325 5.64996 30.958 5.64947 30.9575z" fill="#fbfbfb"/><path fill-rule="evenodd" clip-rule="evenodd" d="M39.2407 29.6669C39.341 29.7428 39.3338 29.5685 39.3143 29.7548L39.0175 30.0153C38.4217 30.4178 36.3831 32.8815 35.9678 33.839 36.6775 33.3296 37.2252 32.909 37.9854 32.4234 38.3931 32.163 40.211 31.3137 40.2951 31.228L40.129 30.9573 40.1173 31.2327 39.6032 31.4252 39.3172 29.4563 39.2407 29.6666V29.6669z" fill="#fbfbfb"/><path fill-rule="evenodd" clip-rule="evenodd" d="M4.69359 38.0059 5.04329 37.9468C5.00219 37.9991 4.98032 38.0553 4.93778 38.0739 4.4845 38.272 4.83035 38.1273 4.69359 38.0059zM5.90492 37.9697C5.85589 37.8986 5.94289 37.8796 5.66121 37.9381 5.50955 37.9697 5.54609 38.0235 5.39828 37.9396 5.8357 37.6177 6.05946 37.7739 6.43895 37.6441 6.54206 37.6478 8.50829 37.1667 9.49033 37.4999L7.90335 37.6227C8.71667 37.7375 10.3673 37.9212 11.0288 37.5709 10.444 37.2425 7.57144 37.0503 6.73217 37.1557 6.0347 37.2432 5.42808 37.4036 4.87001 37.7019 3.90864 38.216 3.83173 38.5802 3.53467 38.746 3.682 38.8931 3.53106 38.7616 3.71613 38.8422 4.14802 39.0309 3.58322 38.7129 3.83798 38.8862L3.85192 39.589C4.03914 39.516 4.52295 38.9366 4.80752 38.7044 5.08078 38.4816 5.52662 38.1539 5.90492 37.9697z" fill="#f6f6f6"/><path fill-rule="evenodd" clip-rule="evenodd" d="M24.3766 18.2606C24.8015 18.2359 25.0113 18.441 26.1445 18.2681 26.5286 18.2095 27.4164 17.9293 27.7173 18.0556 27.2294 18.2232 26.6581 18.4092 26.1075 18.4883 25.1779 18.6214 24.9551 18.4558 24.3766 18.2606zM26.131 17.5585 26.5132 17.7987C26.0215 17.7239 25.9462 17.5423 25.2471 17.5423 24.7356 17.5423 24.1386 17.7698 23.9189 18.1163 24.2513 18.5751 25.3413 18.7306 26.0933 18.7306 27.3539 18.7306 29.0445 17.7766 29.2557 16.9946 27.1006 18.0444 27.4847 17.3941 26.1308 17.5585H26.131z" fill="#f9f9f9"/><path fill-rule="evenodd" clip-rule="evenodd" d="M19.1933 18.054C19.6978 18.1133 20.14 18.2949 20.7204 18.3276 21.3547 18.3634 21.8169 18.2554 22.3985 18.2453 21.6169 18.6674 19.8028 18.6495 19.1933 18.054zM20.7872 17.7741C20.7187 17.8357 20.9418 17.8014 20.6916 17.8416 20.502 17.8722 20.6796 17.8552 20.5952 17.8207 20.7209 17.5668 20.5897 17.7491 20.7598 17.6816L21.0331 17.5329C19.829 17.6226 18.7804 17.6837 17.9661 17.0565 17.851 17.0603 17.882 17.0316 17.8765 17.1462 18.4977 17.8216 18.8979 18.2978 20.1484 18.6104 20.9687 18.8156 22.8974 18.7205 23.1943 18.0576 22.5768 17.3407 21.7152 17.5155 20.7872 17.7743V17.7741z" fill="#f9f9f9"/><path fill-rule="evenodd" clip-rule="evenodd" d="M13.3929 29.2992 16.4882 29.326 16.296 28.2528 13.0728 28.2227 13.3929 29.2992z" fill="#fdfdfd"/><path fill-rule="evenodd" clip-rule="evenodd" d="M40.4922 36.5479C40.9854 36.6362 41.7208 37.0596 42.107 37.3549 42.4844 37.6433 43.1249 38.4486 43.3337 38.5502L43.4332 36.838C42.7396 36.4846 41.5071 35.8708 40.6619 35.832L40.4922 36.5479z" fill="#fbfbfb"/><path fill-rule="evenodd" clip-rule="evenodd" d="M2.44472 38.55C2.72544 38.4133 3.81418 36.8109 5.28627 36.5477L5.11659 35.8318C4.27251 35.8706 3.04196 36.4825 2.34521 36.8378L2.44472 38.55z" fill="#fbfbfb"/><path fill-rule="evenodd" clip-rule="evenodd" d="M3.24246 39.3589C2.99587 39.5066 2.30152 40.4834 2.26643 40.846 2.23423 41.1777 2.81105 42.2902 2.93002 42.6222 3.15642 42.5069 3.30976 42.1241 3.45012 41.9343 4.28578 40.8041 3.97526 41.6002 3.4941 40.4121 3.35807 40.0764 3.34076 39.6054 3.24246 39.3586V39.3589z" fill="#fbfbfb"/><path fill-rule="evenodd" clip-rule="evenodd" d="M18.9767 29.5656 21.4354 29.7569 21.316 28.5954 18.7856 28.3992 18.9767 29.5656z" fill="#fcfcfc"/><path fill-rule="evenodd" clip-rule="evenodd" d="M19.0654 37.1112 21.5782 37.1032 21.6013 35.9659 19.1767 35.9426 19.0654 37.1112z" fill="#fdfdfd"/><path fill-rule="evenodd" clip-rule="evenodd" d="M15.2751 36.2454 14.6856 36.2393 14.5176 37.3685C15.4196 37.3772 15.4556 37.4288 16.2622 37.2629 16.2735 37.2606 16.2903 37.2573 16.3016 37.2556L16.6302 37.2617 16.7696 36.0847 15.2754 36.2454H15.2751z" fill="#fcfcfc"/><path fill-rule="evenodd" clip-rule="evenodd" d="M19.8216 27.9328 21.2355 28.0497C21.2161 27.7613 21.124 26.8256 20.9995 26.6438 20.889 26.4821 20.1615 26.0401 19.9271 26.0093L19.8043 26.4158C19.7493 26.9049 19.7692 27.4472 19.8216 27.9328z" fill="#fbfbfb"/><path fill-rule="evenodd" clip-rule="evenodd" d="M16.7924 27.7447 18.0367 27.8077C18.0888 27.0248 17.8218 26.8048 17.4507 26.3983 17.2409 26.1684 16.7186 25.4008 16.4752 25.2622 16.4454 25.7887 16.6429 27.269 16.7924 27.7447z" fill="#fbfbfb"/><path fill-rule="evenodd" clip-rule="evenodd" d="M13.7134 36.625C14.0068 36.0183 13.4774 31.4731 13.2914 30.653 13.0549 29.6098 12.0771 26.5355 11.521 25.8643 11.5864 26.223 12.6927 28.8222 13.0748 30.7922 13.4562 32.759 13.5846 34.5816 13.7134 36.625z" fill="#f3f3f3"/><path fill-rule="evenodd" clip-rule="evenodd" d="M32.0653 36.625C32.3163 32.6423 32.4823 30.6972 33.8102 27.0963 33.9491 26.7194 34.189 26.2404 34.2575 25.864 33.9924 26.1842 33.442 27.596 33.2413 28.1357 32.9337 28.9624 32.6914 29.7493 32.4869 30.6523 32.303 31.4627 31.7714 36.0174 32.0653 36.625z" fill="#f3f3f3"/><path fill-rule="evenodd" clip-rule="evenodd" d="M24.1346 27.3276 23.7832 28.2345 25.4949 28.3181 25.8119 26.9128C25.1923 27.0627 24.872 27.1966 24.1346 27.3276z" fill="#fcfcfc"/><path fill-rule="evenodd" clip-rule="evenodd" d="M34.2796 36.6324C34.4053 36.2744 34.4413 34.5645 34.4961 33.9749 34.6754 32.046 34.8278 30.8406 35.3183 28.987 35.4825 28.3668 35.9055 27.2284 35.9591 26.7014 35.5575 27.1334 34.7434 30.3298 34.599 31.1718 34.2779 33.0433 34.2776 34.6981 34.2796 36.6324z" fill="#f0f0f0"/><path fill-rule="evenodd" clip-rule="evenodd" d="M11.4993 36.6324C11.5013 34.6981 11.501 33.0431 11.1799 31.1718 11.0355 30.3298 10.2214 27.1336 9.81982 26.7014 9.87342 27.2282 10.2964 28.3668 10.4606 28.987 10.9511 30.8408 11.1035 32.046 11.2828 33.9749 11.3376 34.5645 11.3736 36.2744 11.4993 36.6324z" fill="#f0f0f0"/><path fill-rule="evenodd" clip-rule="evenodd" d="M18.9968 37.6685C18.9641 38.0484 18.8101 38.2399 19.1343 38.299L21.4889 38.3665 21.5122 37.6459C20.8515 37.6273 19.5818 37.5417 18.9968 37.6683V37.6685z" fill="#fdfdfd"/><path fill-rule="evenodd" clip-rule="evenodd" d="M23.2968 36.1437C23.8876 35.8501 24.231 36.6949 23.7408 36.9373 23.1577 37.2255 22.763 36.4091 23.2968 36.1437zM22.322 37.1344C22.6876 37.1445 23.0031 37.1652 23.3718 37.1678 23.679 37.1699 24.2298 37.2878 24.4764 37.1123L24.5332 36.0461 22.4321 35.9802 22.3218 37.1346 22.322 37.1344z" fill="#f9f9f9"/><path fill-rule="evenodd" clip-rule="evenodd" d="M42.7967 30.4212 41.9688 30.7659 42.0651 32.1657 42.996 32.1753 43.139 30.6621 43.1558 30.3269 42.7967 30.4212z" fill="#fcfcfc"/><path fill-rule="evenodd" clip-rule="evenodd" d="M2.79147 32.1734 3.69732 32.1633 3.82566 30.7816 2.61963 30.2932 2.79147 32.1734z" fill="#fcfcfc"/><path fill-rule="evenodd" clip-rule="evenodd" d="M31.9879 46.1345C35.1268 46.8946 39.2025 46.9325 42.146 45.6708 42.8795 45.3562 44.1286 44.4818 44.2321 43.7405 44.0687 43.9393 44.0129 44.1338 43.8308 44.3519 42.7951 45.5929 40.4648 46.1707 38.8781 46.373 36.9226 46.6224 35.1879 46.5469 33.2735 46.2893 32.7107 46.2135 32.091 46.0368 31.5649 45.9924L31.9879 46.1345z" fill="#e2e2e2"/><path fill-rule="evenodd" clip-rule="evenodd" d="M19.7329 8.64328C20.783 9.34765 23.867 9.37141 25.4367 9.0811 26.1544 8.94841 27.0261 8.63458 27.0905 8.62305 26.792 8.60352 25.8349 8.82349 25.4028 8.87454 24.0497 9.03475 22.9095 9.0324 21.5564 8.90748 20.9168 8.84843 20.3078 8.68822 19.7329 8.64305V8.64328z" fill="#424242"/><path fill-rule="evenodd" clip-rule="evenodd" d="M24.3668 38.3272 24.4242 37.7607C24.3182 37.756 24.1894 37.7614 24.0918 37.7553 24.0151 37.7506 24.006 37.7492 23.9344 37.7332L23.8572 37.6913 22.2741 37.6814 22.2231 38.4222 24.2189 38.4241C24.5285 38.4081 24.3098 38.4373 24.3665 38.3269L24.3668 38.3272z" fill="#fdfdfd"/><path fill-rule="evenodd" clip-rule="evenodd" d="M23.0461 28.7474C23.0521 28.5404 23.0689 28.6976 22.9889 28.6317 22.8856 29.0585 22.6608 29.5932 22.5296 30.0722 22.4419 30.3931 22.2321 31.3433 22.1249 31.5473 22.096 30.7935 22.0506 30.079 21.9408 29.3431 21.8896 29.0006 21.5824 27.4792 21.5961 27.3796 21.563 27.8749 21.681 28.4574 21.7242 28.9594 21.7721 29.5146 21.8297 30.0524 21.8696 30.6039 21.9487 31.6957 21.9384 32.9412 22.0593 34.0213 22.2684 33.3381 21.9434 32.7563 22.365 31.2123 22.4789 30.7947 23.0456 29.0173 23.0461 28.7474z" fill="#e5e5e5"/><path fill-rule="evenodd" clip-rule="evenodd" d="M2.215 45.0915C2.31138 44.8833 2.30706 44.4382 2.36714 44.1855 2.42987 43.9225 2.57936 43.6096 2.61806 43.4153 2.65555 43.2266 2.16573 42.2185 2.03355 42.0176 1.88478 42.2561 2.07464 42.526 1.87877 42.8751 1.68866 43.2141 1.70091 43.1522 1.76749 43.6392 1.83526 44.1356 1.94774 44.7504 2.21476 45.0915H2.215z" fill="#f9f9f9"/><path fill-rule="evenodd" clip-rule="evenodd" d="M17.1022 29.4378 18.3796 29.5199 18.1804 28.3568 16.8945 28.2764 17.1022 29.4378z" fill="#fcfcfc"/><path fill-rule="evenodd" clip-rule="evenodd" d="M17.333 36.033 17.2246 37.1877 18.5071 37.1162 18.6095 35.9641 17.333 36.033z" fill="#fcfcfc"/><path fill-rule="evenodd" clip-rule="evenodd" d="M26.2097 27.6385C26.5926 27.4009 28.4824 25.2104 28.7662 24.6594 27.4943 25.145 28.1954 25.1772 27.2672 25.9515 26.4748 26.6125 26.4541 26.1778 26.2095 27.6385H26.2097z" fill="#f7f7f7"/><path fill-rule="evenodd" clip-rule="evenodd" d="M23.915 29.4779C23.8357 28.8178 24.7269 28.7536 24.8139 29.3123 24.9095 29.9263 23.9806 30.0258 23.915 29.4779zM23.3264 29.9007 25.146 29.9863 25.3623 28.8573 23.6316 28.7703 23.3262 29.9007H23.3264z" fill="#f7f7f7"/><path fill-rule="evenodd" clip-rule="evenodd" d="M25.1847 36.0645 25.084 37.1692 26.2888 37.2539 26.3657 36.088 25.1847 36.0645z" fill="#fcfcfc"/><path fill-rule="evenodd" clip-rule="evenodd" d="M4.28027 32.236 5.56898 32.5059 5.56298 31.6672C5.28851 31.4409 4.76769 31.1419 4.37593 31.0645L4.28027 32.2358V32.236z" fill="#fcfcfc"/><path fill-rule="evenodd" clip-rule="evenodd" d="M40.2136 31.6672 40.2134 32.5125 41.4665 32.2205C41.5083 31.8164 41.4507 31.4319 41.4016 31.0649 41.0065 31.143 40.4941 31.4414 40.2136 31.6672z" fill="#fcfcfc"/><path fill-rule="evenodd" clip-rule="evenodd" d="M12.229 37.812C12.2824 37.8779 12.2086 37.8468 12.3679 38.0042 12.3996 38.0355 12.454 38.0741 12.5011 38.1063 13.2307 38.6058 13.9664 39.0824 14.9062 38.7037 14.9242 38.6964 15.0857 38.6142 15.1044 38.599 15.2804 38.4559 15.1403 38.5959 15.2032 38.4691L12.229 37.812z" fill="#f9f9f9"/><path fill-rule="evenodd" clip-rule="evenodd" d="M21.0098 24.857C21.0699 24.8914 21.0961 24.8909 21.1598 24.921 21.1004 23.9063 21.0531 23.6901 20.638 22.8733 20.2756 22.16 19.9987 21.7208 19.985 20.7656 19.1426 21.8542 20.9909 23.7814 21.0098 24.857z" fill="#3f3f3f"/><path fill-rule="evenodd" clip-rule="evenodd" d="M43.644 28.5986C43.8666 29.3851 44.8289 29.1548 44.8323 33.0281 44.833 33.9188 44.8155 34.9259 44.8628 35.8091 44.8808 36.1408 44.8926 38.3306 45.0426 38.5555 44.8308 36.9026 45.2498 31.9372 44.7244 30.3574 44.6078 30.0071 44.0221 28.7939 43.644 28.5986z" fill="#e5e5e5"/><path fill-rule="evenodd" clip-rule="evenodd" d="M24.3529 24.5711C24.4404 24.3989 24.5411 23.7284 24.6209 23.484 24.8485 22.7871 25.6806 20.9053 24.8247 20.2004 24.8377 20.6383 24.9615 20.8142 24.8678 21.3586 24.6724 22.4952 24.0785 23.3454 24.3529 24.5711z" fill="#3f3f3f"/><path fill-rule="evenodd" clip-rule="evenodd" d="M15.4175 11.9034C15.4177 12.3714 15.6013 12.7372 15.6883 13.159 15.7737 13.5726 15.7085 14.1704 15.877 14.5106 16.0412 14.2031 16.3267 12.3271 16.2541 12.0215 16.2541 12.0213 16.3661 12.0658 16.164 11.8232 15.9357 12.3836 16.0662 12.6318 16.0484 13.291 15.9856 13.1515 15.7653 12.2775 15.716 12.065 15.5165 11.2045 15.915 11.1889 16.0217 10.7549 15.58 10.861 15.417 11.3847 15.4175 11.9034z" fill="#f5f5f5"/><path fill-rule="evenodd" clip-rule="evenodd" d="M25.9536 29.9973 26.9993 30.0239 27.2132 28.8792 26.2091 28.8796 25.9536 29.9973z" fill="#fbfbfb"/><path fill-rule="evenodd" clip-rule="evenodd" d="M23.6751 4.07818C23.8943 3.66224 23.1507 2.55699 22.9144 2.29632 22.614 1.96484 21.8401 1.3988 21.1309 1.36963 21.3051 1.5776 21.9338 1.87332 22.5883 2.55275 22.9909 2.97034 23.3341 3.50673 23.6751 4.07818z" fill="#3f3f3f"/><path fill-rule="evenodd" clip-rule="evenodd" d="M26.3882 28.3562 27.3421 28.3503 27.6745 27.0098C27.4671 27.1448 27.2133 27.3975 26.9667 27.613 26.6824 27.8614 26.406 27.9527 26.3882 28.3564V28.3562z" fill="#f9f9f9"/><path fill-rule="evenodd" clip-rule="evenodd" d="M40.9385 34.9405C40.9832 34.7761 40.9681 34.8201 41.107 34.6512 41.1962 34.5427 41.2474 34.4867 41.3269 34.3889 41.4562 34.2296 41.5461 34.0776 41.7184 33.8699 41.0736 33.8155 41.0782 33.8092 40.7636 34.1924 40.6119 34.3773 40.3021 34.7036 40.2314 34.929 40.5511 34.9815 40.6768 35.0462 40.9385 34.9408V34.9405z" fill="#3f3f3f"/><path fill-rule="evenodd" clip-rule="evenodd" d="M4.87506 34.9794C5.16923 35.0064 5.2697 34.9728 5.54585 34.9286 5.4723 34.6971 5.16996 34.382 5.01469 34.192 4.70177 33.8092 4.70129 33.8165 4.06006 33.8701 4.18047 34.0139 4.86304 34.8817 4.8753 34.9794H4.87506z" fill="#3d3d3d"/><path fill-rule="evenodd" clip-rule="evenodd" d="M26.2658 38.2944 26.2671 37.7698C25.9246 37.7677 25.3119 37.7048 25.0137 37.778L25.0293 38.4043 26.2658 38.2944z" fill="#fbfbfb"/><path fill-rule="evenodd" clip-rule="evenodd" d="M29.2467 2.396 29.1934 2.43552C29.2352 2.60961 29.4303 2.9665 29.5721 3.57747 29.806 4.58485 30.029 6.81676 30.029 7.78909H30.1127C30.1127 6.33119 29.9725 3.35021 29.2467 2.396z" fill="#ebebeb"/><path fill-rule="evenodd" clip-rule="evenodd" d="M17.1099 38.2605 18.3757 38.2361 18.3964 37.6538 17.1678 37.7303 17.1099 38.2605z" fill="#fbfbfb"/><path fill-rule="evenodd" clip-rule="evenodd" d="M22.9873 9.87665C23.089 9.96558 23.0911 9.9811 23.3464 10.0331 24.1794 10.2032 25.5767 10.114 26.1555 9.66256 25.7539 9.65621 25.1148 9.79783 24.6428 9.83383 24.0938 9.87594 23.5437 9.8423 22.9873 9.87665z" fill="#3f3f3f"/><path fill-rule="evenodd" clip-rule="evenodd" d="M23.2968 36.1437C22.7627 36.4091 23.1576 37.2252 23.7407 36.9373 24.2312 36.695 23.8875 35.8501 23.2968 36.1437z" fill="#3f3f3f"/><path fill-rule="evenodd" clip-rule="evenodd" d="M23.9147 29.4779C23.9805 30.026 24.9094 29.9265 24.8135 29.3123 24.7265 28.7533 23.8353 28.8177 23.9147 29.4779z" fill="#3f3f3f"/><path fill-rule="evenodd" clip-rule="evenodd" d="M6.35703 28.2437 6.39717 28.1938C6.24984 28.0468 6.23013 28.0764 6.0542 27.9786L6.10996 27.2749C5.84919 27.2998 5.6038 27.3711 5.37235 27.4259 5.06352 27.4993 4.89215 27.4497 4.89456 27.7617 5.11928 27.8381 5.41393 27.8654 5.6574 27.9532 5.90856 28.0437 6.11982 28.1828 6.35727 28.2437H6.35703z" fill="#f7f7f7"/><path fill-rule="evenodd" clip-rule="evenodd" d="M39.3809 28.1941 39.421 28.2439C39.6585 28.183 39.87 28.0437 40.1209 27.9534 40.3641 27.8656 40.6588 27.8386 40.8837 27.7619 40.8861 27.4499 40.7148 27.4996 40.4059 27.4262 40.1745 27.3714 39.9291 27.3001 39.6724 27.2747L39.7327 27.9778C39.7111 27.9858 39.5866 28.0444 39.5743 28.0515 39.4191 28.143 39.4902 28.0849 39.3811 28.1938L39.3809 28.1941z" fill="#f7f7f7"/><path fill-rule="evenodd" clip-rule="evenodd" d="M28.7505 23.8208 28.8219 23.8445C29.3379 23.2724 29.4864 22.3845 29.6479 21.478 29.7936 20.6589 30.1002 19.5254 30.1406 18.7295L29.5083 21.3305C29.3535 22.193 29.2165 23.2531 28.7505 23.8208z" fill="#e5e5e5"/><path fill-rule="evenodd" clip-rule="evenodd" d="M24.7069 1.56792C24.6211 1.57074 24.643 1.55004 24.6492 1.63661 25.302 2.29816 25.8485 3.14863 26.1557 4.08379 26.1795 4.15601 26.2025 4.25317 26.228 4.31669L26.2677 4.4075C26.3081 4.48326 26.3249 4.49173 26.3561 4.53196 26.2429 3.15898 25.5846 2.18642 24.7069 1.56768V1.56792z" fill="#f5f5f5"/><path fill-rule="evenodd" clip-rule="evenodd" d="M35.0187 33.1859C35.3021 32.7366 35.7506 31.0415 35.3742 30.5186 35.292 31.1462 34.944 32.6001 35.0187 33.1859z" fill="#f4f4f4"/><path fill-rule="evenodd" clip-rule="evenodd" d="M10.7596 33.1859C10.8343 32.6001 10.4863 31.1465 10.4041 30.5186 10.0282 31.0432 10.4755 32.7359 10.7596 33.1859z" fill="#f4f4f4"/><path fill-rule="evenodd" clip-rule="evenodd" d="M24.3765 18.2607C24.955 18.4557 25.1778 18.6214 26.1074 18.4885 26.658 18.4096 27.2293 18.2235 27.7172 18.0558 27.4163 17.9295 26.5282 18.2097 26.1444 18.2682 25.0112 18.4412 24.8016 18.236 24.3765 18.2607z" fill="#494949"/><path fill-rule="evenodd" clip-rule="evenodd" d="M19.1934 18.0542C19.8029 18.6496 21.617 18.6675 22.3986 18.2455 21.8169 18.2556 21.355 18.3636 20.7205 18.3278 20.1401 18.2951 19.6976 18.1132 19.1934 18.0542z" fill="#454545"/><path fill-rule="evenodd" clip-rule="evenodd" d="M30.7899 14.5875C30.7615 14.3796 31.0023 13.0757 31.098 12.7704 31.2369 12.3264 31.3496 11.5917 31.0771 11.1654 30.9821 11.0167 31.0254 11.0796 30.9141 11.0012 31.3922 12.6429 30.5231 12.8628 30.7899 14.5875z" fill="#dadada"/><path fill-rule="evenodd" clip-rule="evenodd" d="M26.8432 38.212C27.5222 38.1746 28.2115 38.0179 28.8164 37.8586L27.3624 37.8029C27.0112 37.7796 27.0002 37.7744 26.8418 37.8805L26.8435 38.212H26.8432z" fill="#f5f5f5"/><path fill-rule="evenodd" clip-rule="evenodd" d="M19.9246 2.96174C19.9724 3.0989 20.5149 3.57012 20.9136 4.42506 21.0052 4.62173 21.0773 4.8744 21.183 5.02826 21.2044 4.54269 20.9794 4.05358 20.7903 3.72469 20.6235 3.43508 20.1815 2.95821 19.9392 2.86011 19.8381 2.90316 19.7732 2.79918 19.9248 2.96174H19.9246z" fill="#434343"/><path fill-rule="evenodd" clip-rule="evenodd" d="M32.4526 27.8619 32.8456 27.8 33.333 26.4919C33.1768 26.5663 33.239 26.4503 33.0278 26.7994 32.8624 27.0726 32.4911 27.6021 32.4529 27.8619H32.4526z" fill="#f5f5f5"/><path fill-rule="evenodd" clip-rule="evenodd" d="M26.8882 4.28752C26.9457 3.40083 26.3979 2.26476 25.8882 2.1189 26.253 2.44614 26.6056 3.42741 26.7577 3.96898L26.888 4.28729 26.8882 4.28752z" fill="#ebebeb"/><path fill-rule="evenodd" clip-rule="evenodd" d="M19.2651 34.7036C19.1613 34.8848 19.1435 35.2603 19.1813 35.4626 19.5908 35.5089 21.3638 35.5659 21.6445 35.4144L21.5967 32.4922 21.5957 35.4073 19.2421 35.4059 19.2654 34.7034 19.2651 34.7036z" fill="#868686"/><path fill-rule="evenodd" clip-rule="evenodd" d="M19.4095 27.9004C19.2795 27.6411 18.7705 27.3336 18.5518 27.124 18.4982 27.9773 18.757 27.9145 19.4095 27.9004z" fill="#f6f6f6"/><path fill-rule="evenodd" clip-rule="evenodd" d="M22.9892 4.32616C23.0925 4.28099 23.0656 4.41908 23.0697 4.18994 22.9015 3.6519 22.3706 2.92848 21.9194 2.78003 22.0687 3.0407 22.2915 3.26255 22.4886 3.5418 22.6477 3.76718 22.9171 4.15253 22.9892 4.32616z" fill="#424242"/><path fill-rule="evenodd" clip-rule="evenodd" d="M7.68496 34.9308 8.71506 34.9995C8.57711 34.8287 8.31706 34.7452 8.10292 34.6553 7.87363 34.5591 7.64579 34.4662 7.40088 34.4297 7.5112 34.6184 7.65372 34.7169 7.68496 34.9308z" fill="#f6f6f6"/><path fill-rule="evenodd" clip-rule="evenodd" d="M37.063 35.0004 38.0917 34.915C38.1243 34.7169 38.2669 34.6184 38.3772 34.4297 38.0212 34.4824 37.6994 34.648 37.3805 34.7908 37.3194 34.8181 37.2646 34.831 37.212 34.8637 37.0327 34.975 37.1594 34.88 37.063 35.0004z" fill="#f6f6f6"/><path fill-rule="evenodd" clip-rule="evenodd" d="M27.2938 2.89509C27.1469 2.30929 26.38 1.56658 25.7231 1.42236 26.4906 2.14085 26.3608 1.77855 27.2938 2.89509z" fill="#dadada"/><path fill-rule="evenodd" clip-rule="evenodd" d="M12.8696 27.6278 13.2443 27.6494 12.728 26.7627C12.556 26.4802 12.5995 26.5627 12.4668 26.4849L12.8696 27.6275V27.6278z" fill="#f5f5f5"/><path fill-rule="evenodd" clip-rule="evenodd" d="M40.7399 35.3869 40.7507 35.0951C39.8641 35.034 40.272 35.0523 40.1362 35.1584 40.159 35.2803 39.985 35.4751 40.7399 35.3869z" fill="#404040"/><path fill-rule="evenodd" clip-rule="evenodd" d="M5.03865 35.3869C5.76135 35.4714 5.6222 35.2651 5.6419 35.1585 5.51621 35.0599 5.80918 35.0684 5.36407 35.0625 5.33307 35.062 5.07951 35.0917 5.02783 35.0952L5.03865 35.3869z" fill="#404040"/><path fill-rule="evenodd" clip-rule="evenodd" d="M18.5938 35.4019 17.4067 35.4729 17.4589 34.2637C17.3736 34.4084 17.3829 34.6907 17.3673 34.8624 17.3464 35.0927 17.3262 35.3162 17.3459 35.5458L18.2986 35.4901C18.5851 35.4802 18.4695 35.5317 18.5938 35.4019z" fill="#929292"/><path fill-rule="evenodd" clip-rule="evenodd" d="M5.90508 37.9696C6.10216 37.8993 6.2901 37.8353 6.43912 37.644 6.05962 37.7739 5.8361 37.6177 5.39844 37.9395 5.54625 38.0235 5.50972 37.9696 5.66137 37.9381 5.94305 37.8795 5.85605 37.8986 5.90508 37.9696z" fill="#bcbcbc"/><path fill-rule="evenodd" clip-rule="evenodd" d="M20.9814 13.3629 21.4842 13.2855C21.4112 13.0818 21.3184 13.0571 21.1966 12.9846 21.1884 12.995 21.1768 12.999 21.1742 13.0173L20.9814 13.3629z" fill="#ededed"/><path fill-rule="evenodd" clip-rule="evenodd" d="M25.2095 13.2937 25.7483 13.3699C25.6981 13.3292 25.7024 13.38 25.6094 13.2109 25.5983 13.1909 25.5659 13.1 25.5589 13.0869 25.5044 12.9841 25.5488 13.0502 25.4887 12.9888 25.189 13.1819 25.2809 13.1264 25.2095 13.2939V13.2937z" fill="#e9e9e9"/><path fill-rule="evenodd" clip-rule="evenodd" d="M39.2029 34.0453C39.4492 34.0181 39.3851 34.0103 39.4639 34.1227 39.7102 34.1013 40.0246 34.0465 40.1719 33.9272L39.392 33.9599C39.2877 33.9842 39.3714 33.9658 39.2865 33.9952 39.2743 33.9995 39.2512 34.0324 39.2428 34.0192 39.2346 34.0068 39.2161 34.0366 39.2026 34.0453H39.2029z" fill="#a0a0a0"/><path fill-rule="evenodd" clip-rule="evenodd" d="M39.317 35.6408 39.1713 35.5453 39.621 35.4554C39.2148 35.4505 38.7536 35.4994 38.4556 35.6187L39.3167 35.6408H39.317z" fill="#949494"/><path fill-rule="evenodd" clip-rule="evenodd" d="M6.46126 35.6408 7.32168 35.5956C7.02462 35.4994 6.5634 35.4505 6.15723 35.4554L6.59994 35.5307 6.46126 35.6408z" fill="#949494"/><path fill-rule="evenodd" clip-rule="evenodd" d="M22.9888 28.632C23.0688 28.6979 23.052 28.5405 23.046 28.7478 23.2161 28.5748 23.2688 28.1822 23.3212 27.9187L23.2596 27.9945C23.1224 28.2109 23.3454 27.8328 23.2128 28.0721L22.9888 28.632z" fill="#a2a2a2"/><path fill-rule="evenodd" clip-rule="evenodd" d="M6.31475 34.122C6.31475 33.979 6.43396 34.0364 6.57456 34.0458 6.56134 34.0371 6.54283 34.0072 6.53466 34.0197L5.60742 33.927C5.77109 34.0442 6.05806 34.0994 6.31475 34.122z" fill="#9f9f9f"/><path fill-rule="evenodd" clip-rule="evenodd" d="M24.3667 38.3272C24.4929 38.2095 24.4866 37.8816 24.4551 37.6875L23.8569 37.6915 23.9341 37.7334C24.0059 37.7494 24.0148 37.7505 24.0915 37.7555 24.1891 37.7616 24.3179 37.7562 24.4239 37.7609L24.3665 38.3274 24.3667 38.3272z" fill="#a9a9a9"/><path fill-rule="evenodd" clip-rule="evenodd" d="M42.8271 30.3236 42.9153 30.3443C42.5546 30.3366 42.935 30.2924 42.7966 30.4215L43.1557 30.3269 43.1391 30.6624C43.3025 30.5222 43.2018 30.3333 43.1836 30.2051 43.0451 30.2183 43.0692 30.2011 42.9502 30.2415 42.7082 30.3241 42.9555 30.2251 42.8274 30.3236H42.8271z" fill="#7c7c7c"/><path fill-rule="evenodd" clip-rule="evenodd" d="M29.1931 2.43534 29.2465 2.39582C29.1676 2.15397 28.915 1.98459 28.6826 1.9126L29.1929 2.43534H29.1931z" fill="#9e9e9e"/><path fill-rule="evenodd" clip-rule="evenodd" d="M28.8222 23.8446 28.7508 23.8208 28.2437 24.2798C28.5075 24.1878 28.7224 24.1146 28.8222 23.8446z" fill="#989898"/><path fill-rule="evenodd" clip-rule="evenodd" d="M26.1099 14.1008C26.1377 14.1135 26.1108 14.1234 26.2594 14.1603 26.4612 14.2105 26.6124 14.225 26.7403 14.1521L26.2877 13.9778C26.2421 14.1323 26.4641 14.0874 26.1099 14.1011V14.1008z" fill="#969696"/><path fill-rule="evenodd" clip-rule="evenodd" d="M28.6712 11.845C28.5486 11.8041 28.5673 11.9695 28.5864 11.7229 28.556 11.7572 28.5299 11.7055 28.4511 11.9746 28.4183 12.0861 28.4109 12.1504 28.3999 12.2593 28.5709 12.1671 28.5776 12.0407 28.6715 11.845H28.6712z" fill="#8f8f8f"/><path fill-rule="evenodd" clip-rule="evenodd" d="M24.9721 30.9492C25.0666 30.8393 24.9887 31.0847 25.0678 30.7819 25.0992 30.6617 25.0858 30.641 25.0896 30.5429 24.9024 30.4558 24.8265 30.484 24.5977 30.4753 24.7515 30.5826 24.8012 30.5462 25.0209 30.5457L24.9721 30.9492z" fill="#a6a6a6"/><path fill-rule="evenodd" clip-rule="evenodd" d="M20.8345 1.13785 21.2729 1.12538 21.2649.947998C20.8222.979288 21.2286.920943 21.0328 1.02728 20.9393 1.0781 20.9174 1.08398 20.8347 1.13785H20.8345z" fill="#8f8f8f"/><path fill-rule="evenodd" clip-rule="evenodd" d="M8.1626 29.5906C8.30488 29.7657 8.35944 29.788 8.5832 29.8466 8.4772 29.6598 8.40414 29.6217 8.22316 29.5405L8.16284 29.5906H8.1626z" fill="#959595"/><path fill-rule="evenodd" clip-rule="evenodd" d="M43.2053 28.1842C43.2116 28.0294 43.3541 28.0584 43.1565 28.0577 43.0073 27.9473 42.9025 27.8817 42.7568 27.8005 42.8712 28.0057 43.0498 28.1351 43.2056 28.1842H43.2053z" fill="#737373"/><path fill-rule="evenodd" clip-rule="evenodd" d="M42.3169 39.0646C42.4205 39.2295 42.5089 39.2613 42.7183 39.3698 42.6125 39.1855 42.5532 39.099 42.3904 39.0107L42.3169 39.0644V39.0646z" fill="#a9a9a9"/><path fill-rule="evenodd" clip-rule="evenodd" d="M43.6444 28.5986C43.5517 28.4036 43.3899 28.2532 43.2056 28.1841 43.2712 28.3361 43.2536 28.2485 43.3901 28.4012 43.6194 28.6579 43.3815 28.5758 43.6444 28.5986z" fill="#a0a0a0"/><path fill-rule="evenodd" clip-rule="evenodd" d="M15.6617 38.0894C15.5006 38.1524 15.4903 38.2098 15.4419 38.3632 15.6996 38.3717 15.7067 38.3976 15.6617 38.0894z" fill="#a2a2a2"/><path fill-rule="evenodd" clip-rule="evenodd" d="M6.76073 30.0137 6.82178 29.9636C6.67589 29.7606 6.63671 29.8177 6.53745 29.6667 6.4317 29.7161 6.4454 29.5867 6.4555 29.7627L6.76049 30.0135 6.76073 30.0137z" fill="#999"/><path fill-rule="evenodd" clip-rule="evenodd" d="M37.6097 29.5881 37.559 29.5417C37.3667 29.6173 37.3061 29.654 37.1978 29.8429L37.5097 29.7053C37.5948 29.6311 37.5422 29.6751 37.6097 29.5879V29.5881z" fill="#969696"/><path fill-rule="evenodd" clip-rule="evenodd" d="M26.8181 13.1746C27.0245 12.9855 26.9673 13.0257 26.8785 12.8782 26.5743 13.1245 26.8179 13.1741 26.8181 13.1746z" fill="#e2e2e2"/><path fill-rule="evenodd" clip-rule="evenodd" d="M38.9565 29.9637 39.0176 30.0152 39.3144 29.7547C39.3339 29.5684 39.3411 29.7427 39.2409 29.6668 39.2351 29.6755 39.2264 29.6799 39.2238 29.6931L38.9565 29.9637z" fill="#999"/><path fill-rule="evenodd" clip-rule="evenodd" d="M4.69385 38.0058C4.8306 38.127 4.48475 38.2719 4.93803 38.0738 4.98058 38.0552 5.00245 37.999 5.04354 37.9468L4.69385 38.0058z" fill="#8e8e8e"/><path fill-rule="evenodd" clip-rule="evenodd" d="M19.8663 13.1739C19.9458 13.0353 19.9832 13.368 19.9221 13.0306 19.8793 12.793 19.9265 12.9633 19.806 12.8901 19.6946 13.1085 19.805 13.0969 19.8663 13.1739z" fill="#e7e7e7"/><path fill-rule="evenodd" clip-rule="evenodd" d="M18.6222 3.97461 18.4902 3.99484 18.6581 4.26539C18.6734 4.23457 18.7347 4.35291 18.7024 4.10988 18.6859 3.98426 18.6265 3.97908 18.6222 3.97461z" fill="#959595"/><path fill-rule="evenodd" clip-rule="evenodd" d="M19.9246 2.96184C19.7729 2.79928 19.8378 2.90326 19.939 2.86021 19.9173 2.83692 19.9058 2.78916 19.8041 2.73058 19.695 2.668 19.7474 2.69976 19.6152 2.66895 19.7066 2.84868 19.7554 2.86633 19.9248 2.96184H19.9246z" fill="#8d8d8d"/><path fill-rule="evenodd" clip-rule="evenodd" d="M22.4556 14.1597 22.5209 14.2374C22.5602 14.1884 22.5626 14.2207 22.6069 14.1205 22.6471 14.0296 22.6419 14.0038 22.6613 13.916 22.462 14.0165 22.5253 13.9308 22.4556 14.1597z" fill="#9c9c9c"/><path fill-rule="evenodd" clip-rule="evenodd" d="M26.7495 23.0591 26.7212 22.981C26.6383 23.0468 26.4853 23.1875 26.5763 23.3854L26.7492 23.0588 26.7495 23.0591z" fill="#9b9b9b"/><path fill-rule="evenodd" clip-rule="evenodd" d="M22.989 4.32616 23.1303 4.51154C23.1396 4.48472 23.2002 4.56871 23.1581 4.36098 23.0963 4.05608 23.1334 4.28287 23.069 4.18994 23.0649 4.41908 23.0917 4.28122 22.9888 4.32616H22.989z" fill="#9b9b9b"/><path fill-rule="evenodd" clip-rule="evenodd" d="M30.9744 31.7772 31.1152 31.7925C31.1152 31.7379 31.1233 31.5958 31.1159 31.5457 31.0781 31.285 31.1667 31.6795 31.0934 31.4492L30.9741 31.7772H30.9744z" fill="#9f9f9f"/><path fill-rule="evenodd" clip-rule="evenodd" d="M14.6627 31.7922 14.8035 31.777 14.6842 31.449C14.6073 31.7515 14.701 31.225 14.6617 31.5455 14.6548 31.6026 14.6624 31.732 14.6627 31.7922z" fill="#9f9f9f"/><path fill-rule="evenodd" clip-rule="evenodd" d="M36.1289 34.9034 36.0592 34.8228 35.8521 35.0444C36.0888 34.9975 36.0073 35.0479 36.1289 34.9037V34.9034z" fill="#b5b5b5"/><path fill-rule="evenodd" clip-rule="evenodd" d="M17.8765 17.1463C17.882 17.0317 17.8511 17.0604 17.9658 17.0567 17.8992 16.9818 18.0546 16.9764 17.7646 16.9407 17.7951 17.2308 17.8068 17.0795 17.8765 17.1463z" fill="#979797"/><path fill-rule="evenodd" clip-rule="evenodd" d="M9.64941 34.9034C9.77059 35.0479 9.68941 34.9973 9.91211 35.0549L9.71886 34.8225 9.64941 34.9032V34.9034z" fill="#b5b5b5"/><path fill-rule="evenodd" clip-rule="evenodd" d="M41.5068 42.5339C41.6251 42.6534 41.3823 42.5506 41.6157 42.6297 41.8587 42.712 41.7061 42.6372 41.7647 42.6144 41.6131 42.3786 41.9565 42.6777 41.6986 42.5382L41.5878 42.4946 41.5068 42.5342V42.5339z" fill="#a1a1a1"/><path fill-rule="evenodd" clip-rule="evenodd" d="M20.7868 17.7746 20.7597 17.6821C20.5902 17.7496 20.7209 17.5673 20.5957 17.8211 20.6798 17.8557 20.5028 17.8729 20.6917 17.8421 20.9408 17.8016 20.7188 17.8362 20.787 17.7746H20.7868z" fill="#9d9d9d"/><path fill-rule="evenodd" clip-rule="evenodd" d="M21.1591 24.9209C21.0957 24.8908 21.0696 24.891 21.0097 24.8569 21.0176 25.0694 20.9716 24.9524 21.0985 25.1032L21.1589 24.9209H21.1591z" fill="#949494"/><path fill-rule="evenodd" clip-rule="evenodd" d="M19.7534 24.7756 19.625 24.7985C19.7742 24.9645 19.6066 24.8377 19.8053 24.954 19.8259 24.9184 19.8927 25.0419 19.8276 24.8714 19.7981 24.7942 19.8053 24.8274 19.7534 24.7756z" fill="#717171"/><path fill-rule="evenodd" clip-rule="evenodd" d="M18.0967 11.8947C18.1877 12.0528 18.0763 12.0015 18.278 12.0255 18.2305 11.7879 18.3156 12.0354 18.2557 11.9371 18.2099 11.8618 18.2044 11.8646 18.1637 11.822L18.0967 11.8947z" fill="#9c9c9c"/><path fill-rule="evenodd" clip-rule="evenodd" d="M26.4106 13.2901C26.631 13.1889 26.5349 13.3277 26.5864 13.0835 26.4042 13.1672 26.4715 13.0727 26.4106 13.2901z" fill="#b6b6b6"/><path fill-rule="evenodd" clip-rule="evenodd" d="M20.6938 13.2778C20.8603 13.202 20.8244 13.2491 20.8818 13.0818 20.7314 13.1277 20.7173 13.0954 20.6938 13.2778z" fill="#c1c1c1"/><path fill-rule="evenodd" clip-rule="evenodd" d="M21.144 6.13973C20.9215 6.17408 21.0633 6.18607 20.9414 6.12891L20.991 6.28535C21.2134 6.19925 21.0652 6.26347 21.1442 6.13949L21.144 6.13973z" fill="#9f9f9f"/><path fill-rule="evenodd" clip-rule="evenodd" d="M22.3965 19.7433C22.6719 19.6977 22.4633 19.7469 22.5428 19.6553L22.4164 19.5925 22.3967 19.7436 22.3965 19.7433z" fill="#a9a9a9"/><path fill-rule="evenodd" clip-rule="evenodd" d="M17.0298 22.2665 17.1972 22.3761C17.2216 22.2446 17.2604 22.3707 17.162 22.1406 17.1514 22.3126 17.1996 22.275 17.0298 22.2665z" fill="#9f9f9f"/><path fill-rule="evenodd" clip-rule="evenodd" d="M16.4141 16.0616 16.534 16.0769 16.494 15.9219C16.4696 15.9339 16.4459 15.9266 16.4442 15.9461 16.4418 15.9741 16.4193 16.0426 16.4141 16.0616z" fill="#858585"/><path fill-rule="evenodd" clip-rule="evenodd" d="M18.9556 16.4454 18.8677 16.4574 19.0056 16.6119C19.02 16.2624 19.0279 16.5625 18.9556 16.4454z" fill="#bcbcbc"/><path fill-rule="evenodd" clip-rule="evenodd" d="M24.8373 5.75661 24.7075 5.71191 24.7336 5.88365 24.8373 5.75661z" fill="#858585"/><path fill-rule="evenodd" clip-rule="evenodd" d="M24.6488 1.63676C24.6423 1.54995 24.6208 1.57065 24.7063 1.56806L24.6488 1.63676z" fill="#989898"/></svg>