<svg width="24" height="21" viewBox="0 0 24 21" fill="none" xmlns="http://www.w3.org/2000/svg"><path d="M18.7154 20.1613C18.6075 20.2694 18.4793 20.3551 18.3383 20.4137 18.1972 20.4722 18.046 20.5023 17.8933 20.5023 17.7406 20.5023 17.5893 20.4722 17.4483 20.4137 17.3072 20.3551 17.1791 20.2694 17.0712 20.1613L14.5992 17.6892C14.4912 17.5813 14.4056 17.4531 14.3471 17.3121 14.2887 17.171 14.2586 17.0198 14.2586 16.8671 14.2586 16.7145 14.2887 16.5633 14.3471 16.4222 14.4056 16.2812 14.4912 16.153 14.5992 16.0451 14.8172 15.827 15.1129 15.7046 15.4212 15.7046 15.5739 15.7046 15.7251 15.7346 15.8661 15.7931 16.0072 15.8515 16.1353 15.9371 16.2433 16.0451L17.8875 17.6892 22.0153 13.5614C22.1233 13.4534 22.2515 13.3678 22.3925 13.3093 22.5336 13.2509 22.6847 13.2208 22.8374 13.2208 22.9901 13.2208 23.1413 13.2509 23.2823 13.3093 23.4234 13.3678 23.5515 13.4534 23.6595 13.5614 23.7674 13.6693 23.8531 13.7975 23.9115 13.9385 23.9699 14.0796 24 14.2308 24 14.3834 24 14.5361 23.9699 14.6873 23.9115 14.8283 23.8531 14.9694 23.7674 15.0975 23.6595 15.2055L18.7154 20.1613zM11.7539 18.6571H2.33213C1.04946 18.6571.0 17.6076.0 16.3249V2.33213C0 1.04946 1.04946.0 2.33213.0H20.9892C22.2719.0 23.3213 1.04946 23.3213 2.33213V10.1215C22.0777 9.52985 20.7046 9.26273 19.3299 9.34502 17.9552 9.42731 16.6238 9.85631 15.4596 10.592 14.2955 11.3278 13.3366 12.3463 12.6723 13.5526 12.008 14.759 11.66 16.1139 11.6607 17.491 11.6607 17.8875 11.6956 18.2723 11.7539 18.6571zM11.0426 10.1098C11.4158 10.343 11.9055 10.343 12.2787 10.1098l8.2441-5.15402C20.6397 4.89014 20.7421 4.80147 20.8237 4.69511 20.9054 4.58876 20.9646 4.46694 20.9979 4.33703 21.0311 4.20712 21.0376 4.07183 21.017 3.93933 20.9964 3.80683 20.9492 3.67989 20.8781 3.56618 20.807 3.45248 20.7136 3.35437 20.6035 3.27781 20.4935 3.20124 20.369 3.14781 20.2377 3.12074 20.1063 3.09367 19.9709 3.09354 19.8395 3.12033 19.7081 3.14713 19.5835 3.20031 19.4733 3.27665L11.6607 8.16246 3.84802 3.27665C3.73778 3.20031 3.6132 3.14713 3.48182 3.12033 3.35044 3.09354 3.21498 3.09367 3.08366 3.12074 2.95233 3.14781 2.82786 3.20124 2.71778 3.27781 2.6077 3.35437 2.5143 3.45248 2.44324 3.56618 2.37217 3.67989 2.32491 3.80683 2.30433 3.93933 2.28374 4.07183 2.29026 4.20712 2.32348 4.33703 2.35669 4.46694 2.41592 4.58876 2.49758 4.69511 2.57924 4.80147 2.68163 4.89014 2.79856 4.95578L11.0426 10.1098z" fill="#80bd00"/></svg>