<svg width="24" height="24" viewBox="0 0 24 24" fill="none" xmlns="http://www.w3.org/2000/svg"><path d="M12 .75C5.787.75.75 5.787.75 12 .75 18.213 5.787 23.25 12 23.25 18.213 23.25 23.25 18.213 23.25 12 23.25 5.787 18.213.75 12 .75zM18.7493 12.75H13.2919C13.1615 12.9747 12.9747 13.1615 12.75 13.2919V14.25h-1.5v-.9581C11.0255 13.1613 10.8387 12.9745 10.7081 12.75H9.75075L9.75 11.25h.9581C10.8394 11.025 11.025 10.839 11.25 10.7081V2.25h1.5v8.4581C12.9747 10.8385 13.1615 11.0253 13.2919 11.25H18.75L18.7493 12.75z" fill="#80bd00"/></svg>